<svg width="1024" height="512" viewBox="0 0 1024 512" fill="none" xmlns="http://www.w3.org/2000/svg">
<rect width="1024" height="512" fill="#EEEEEE"/>
<rect x="24" y="99" width="976" height="309" fill="white"/>
<path d="M383.724 65.84V63.6H388.844V65.84H383.724ZM395.894 70.16C395.115 70.16 394.433 70.016 393.846 69.728C393.27 69.4293 392.822 69.0187 392.502 68.496C392.193 67.9627 392.038 67.344 392.038 66.64V64.56C392.038 63.856 392.193 63.2427 392.502 62.72C392.822 62.1867 393.27 61.776 393.846 61.488C394.433 61.1893 395.115 61.04 395.894 61.04C396.673 61.04 397.345 61.1893 397.91 61.488C398.486 61.776 398.929 62.1867 399.238 62.72C399.558 63.2427 399.718 63.856 399.718 64.56V66.16H394.326V66.64C394.326 67.1947 394.459 67.616 394.726 67.904C394.993 68.1813 395.393 68.32 395.926 68.32C396.299 68.32 396.598 68.256 396.822 68.128C397.057 68 397.211 67.824 397.286 67.6H399.638C399.446 68.368 399.009 68.9867 398.326 69.456C397.654 69.9253 396.843 70.16 395.894 70.16ZM397.43 64.928V64.528C397.43 63.984 397.302 63.568 397.046 63.28C396.801 62.992 396.417 62.848 395.894 62.848C395.371 62.848 394.977 62.9973 394.71 63.296C394.454 63.5947 394.326 64.016 394.326 64.56V64.8L397.59 64.768L397.43 64.928ZM406.912 70C406.293 70 405.749 69.872 405.28 69.616C404.811 69.3493 404.443 68.9813 404.176 68.512C403.92 68.0427 403.792 67.4987 403.792 66.88V60.48H401.072V58.32H406.192V66.88C406.192 67.168 406.277 67.4027 406.448 67.584C406.629 67.7547 406.864 67.84 407.152 67.84H409.712V70H406.912ZM415.082 70.16C414.303 70.16 413.62 70.016 413.034 69.728C412.458 69.4293 412.01 69.0187 411.69 68.496C411.38 67.9627 411.226 67.344 411.226 66.64V64.56C411.226 63.856 411.38 63.2427 411.69 62.72C412.01 62.1867 412.458 61.776 413.034 61.488C413.62 61.1893 414.303 61.04 415.082 61.04C415.86 61.04 416.532 61.1893 417.098 61.488C417.674 61.776 418.116 62.1867 418.426 62.72C418.746 63.2427 418.906 63.856 418.906 64.56V66.16H413.514V66.64C413.514 67.1947 413.647 67.616 413.914 67.904C414.18 68.1813 414.58 68.32 415.114 68.32C415.487 68.32 415.786 68.256 416.01 68.128C416.244 68 416.399 67.824 416.474 67.6H418.826C418.634 68.368 418.196 68.9867 417.514 69.456C416.842 69.9253 416.031 70.16 415.082 70.16ZM416.618 64.928V64.528C416.618 63.984 416.49 63.568 416.234 63.28C415.988 62.992 415.604 62.848 415.082 62.848C414.559 62.848 414.164 62.9973 413.898 63.296C413.642 63.5947 413.514 64.016 413.514 64.56V64.8L416.778 64.768L416.618 64.928ZM424.707 70.16C423.929 70.16 423.246 70.016 422.659 69.728C422.073 69.4293 421.619 69.0187 421.299 68.496C420.979 67.9627 420.819 67.344 420.819 66.64V64.56C420.819 63.8453 420.979 63.2267 421.299 62.704C421.619 62.1813 422.073 61.776 422.659 61.488C423.246 61.1893 423.929 61.04 424.707 61.04C425.87 61.04 426.798 61.3333 427.491 61.92C428.185 62.5067 428.553 63.3067 428.595 64.32H426.195C426.163 63.9467 426.014 63.6533 425.747 63.44C425.491 63.2267 425.145 63.12 424.707 63.12C424.227 63.12 423.859 63.2427 423.603 63.488C423.347 63.7333 423.219 64.0907 423.219 64.56V66.64C423.219 67.0987 423.347 67.456 423.603 67.712C423.859 67.9573 424.227 68.08 424.707 68.08C425.145 68.08 425.491 67.9787 425.747 67.776C426.014 67.5627 426.163 67.264 426.195 66.88H428.595C428.553 67.8933 428.185 68.6933 427.491 69.28C426.798 69.8667 425.87 70.16 424.707 70.16ZM435.213 70C434.317 70 433.613 69.744 433.101 69.232C432.589 68.72 432.333 68.016 432.333 67.12V63.36H430.013V61.2H432.333V58.72H434.733V61.2H438.013V63.36H434.733V67.12C434.733 67.6 434.973 67.84 435.453 67.84H437.853V70H435.213ZM440.359 70V61.2H442.599V62.88H443.207L442.519 63.904C442.519 62.9547 442.738 62.24 443.175 61.76C443.612 61.28 444.252 61.04 445.095 61.04C446.066 61.04 446.818 61.3333 447.351 61.92C447.895 62.5067 448.167 63.3333 448.167 64.4V65.12H445.607V64.56C445.607 64.08 445.474 63.7067 445.207 63.44C444.951 63.1733 444.604 63.04 444.167 63.04C443.708 63.04 443.356 63.1733 443.111 63.44C442.876 63.7067 442.759 64.08 442.759 64.56V70H440.359ZM453.441 70.16C452.662 70.16 451.985 70.016 451.409 69.728C450.833 69.4293 450.385 69.0187 450.065 68.496C449.755 67.9627 449.601 67.344 449.601 66.64V64.56C449.601 63.856 449.755 63.2427 450.065 62.72C450.385 62.1867 450.833 61.776 451.409 61.488C451.985 61.1893 452.662 61.04 453.441 61.04C454.23 61.04 454.907 61.1893 455.473 61.488C456.049 61.776 456.491 62.1867 456.801 62.72C457.121 63.2427 457.281 63.856 457.281 64.56V66.64C457.281 67.344 457.121 67.9627 456.801 68.496C456.491 69.0187 456.049 69.4293 455.473 69.728C454.907 70.016 454.23 70.16 453.441 70.16ZM453.441 68.08C453.91 68.08 454.267 67.9573 454.513 67.712C454.758 67.456 454.881 67.0987 454.881 66.64V64.56C454.881 64.0907 454.758 63.7333 454.513 63.488C454.267 63.2427 453.91 63.12 453.441 63.12C452.982 63.12 452.625 63.2427 452.369 63.488C452.123 63.7333 452.001 64.0907 452.001 64.56V66.64C452.001 67.0987 452.123 67.456 452.369 67.712C452.625 67.9573 452.982 68.08 453.441 68.08ZM459.29 70V61.2H461.61V62.88H462.314L461.61 63.44C461.61 62.6933 461.824 62.1067 462.25 61.68C462.677 61.2533 463.253 61.04 463.978 61.04C464.832 61.04 465.514 61.3387 466.026 61.936C466.549 62.5333 466.81 63.328 466.81 64.32V70H464.41V64.56C464.41 64.1013 464.288 63.7493 464.042 63.504C463.808 63.248 463.472 63.12 463.034 63.12C462.608 63.12 462.277 63.248 462.042 63.504C461.808 63.7493 461.69 64.1013 461.69 64.56V70H459.29ZM470.068 65.84V63.6H475.188V65.84H470.068ZM482.27 70.16C481.491 70.16 480.809 70.016 480.222 69.728C479.635 69.4293 479.182 69.0187 478.862 68.496C478.542 67.9627 478.382 67.344 478.382 66.64V64.56C478.382 63.8453 478.542 63.2267 478.862 62.704C479.182 62.1813 479.635 61.776 480.222 61.488C480.809 61.1893 481.491 61.04 482.27 61.04C483.433 61.04 484.361 61.3333 485.054 61.92C485.747 62.5067 486.115 63.3067 486.158 64.32H483.758C483.726 63.9467 483.577 63.6533 483.31 63.44C483.054 63.2267 482.707 63.12 482.27 63.12C481.79 63.12 481.422 63.2427 481.166 63.488C480.91 63.7333 480.782 64.0907 480.782 64.56V66.64C480.782 67.0987 480.91 67.456 481.166 67.712C481.422 67.9573 481.79 68.08 482.27 68.08C482.707 68.08 483.054 67.9787 483.31 67.776C483.577 67.5627 483.726 67.264 483.758 66.88H486.158C486.115 67.8933 485.747 68.6933 485.054 69.28C484.361 69.8667 483.433 70.16 482.27 70.16ZM491.816 70.16C491.037 70.16 490.36 70.016 489.784 69.728C489.208 69.4293 488.76 69.0187 488.44 68.496C488.13 67.9627 487.976 67.344 487.976 66.64V64.56C487.976 63.856 488.13 63.2427 488.44 62.72C488.76 62.1867 489.208 61.776 489.784 61.488C490.36 61.1893 491.037 61.04 491.816 61.04C492.605 61.04 493.282 61.1893 493.848 61.488C494.424 61.776 494.866 62.1867 495.176 62.72C495.496 63.2427 495.656 63.856 495.656 64.56V66.64C495.656 67.344 495.496 67.9627 495.176 68.496C494.866 69.0187 494.424 69.4293 493.848 69.728C493.282 70.016 492.605 70.16 491.816 70.16ZM491.816 68.08C492.285 68.08 492.642 67.9573 492.888 67.712C493.133 67.456 493.256 67.0987 493.256 66.64V64.56C493.256 64.0907 493.133 63.7333 492.888 63.488C492.642 63.2427 492.285 63.12 491.816 63.12C491.357 63.12 491 63.2427 490.744 63.488C490.498 63.7333 490.376 64.0907 490.376 64.56V66.64C490.376 67.0987 490.498 67.456 490.744 67.712C491 67.9573 491.357 68.08 491.816 68.08ZM497.921 70V61.2H500.161V62.88H500.769L500.081 63.904C500.081 62.9547 500.3 62.24 500.737 61.76C501.175 61.28 501.815 61.04 502.657 61.04C503.628 61.04 504.38 61.3333 504.913 61.92C505.457 62.5067 505.729 63.3333 505.729 64.4V65.12H503.169V64.56C503.169 64.08 503.036 63.7067 502.769 63.44C502.513 63.1733 502.167 63.04 501.729 63.04C501.271 63.04 500.919 63.1733 500.673 63.44C500.439 63.7067 500.321 64.08 500.321 64.56V70H497.921ZM507.259 70V61.2H509.579V62.88H510.283L509.579 63.44C509.579 62.6933 509.792 62.1067 510.219 61.68C510.646 61.2533 511.222 61.04 511.947 61.04C512.8 61.04 513.483 61.3387 513.995 61.936C514.518 62.5333 514.779 63.328 514.779 64.32V70H512.379V64.56C512.379 64.1013 512.256 63.7493 512.011 63.504C511.776 63.248 511.44 63.12 511.003 63.12C510.576 63.12 510.246 63.248 510.011 63.504C509.776 63.7493 509.659 64.1013 509.659 64.56V70H507.259ZM520.613 70.16C519.834 70.16 519.152 70.016 518.565 69.728C517.989 69.4293 517.541 69.0187 517.221 68.496C516.912 67.9627 516.757 67.344 516.757 66.64V64.56C516.757 63.856 516.912 63.2427 517.221 62.72C517.541 62.1867 517.989 61.776 518.565 61.488C519.152 61.1893 519.834 61.04 520.613 61.04C521.392 61.04 522.064 61.1893 522.629 61.488C523.205 61.776 523.648 62.1867 523.957 62.72C524.277 63.2427 524.437 63.856 524.437 64.56V66.16H519.045V66.64C519.045 67.1947 519.178 67.616 519.445 67.904C519.712 68.1813 520.112 68.32 520.645 68.32C521.018 68.32 521.317 68.256 521.541 68.128C521.776 68 521.93 67.824 522.005 67.6H524.357C524.165 68.368 523.728 68.9867 523.045 69.456C522.373 69.9253 521.562 70.16 520.613 70.16ZM522.149 64.928V64.528C522.149 63.984 522.021 63.568 521.765 63.28C521.52 62.992 521.136 62.848 520.613 62.848C520.09 62.848 519.696 62.9973 519.429 63.296C519.173 63.5947 519.045 64.016 519.045 64.56V64.8L522.309 64.768L522.149 64.928ZM526.703 70V61.2H528.943V62.88H529.551L528.863 63.904C528.863 62.9547 529.081 62.24 529.519 61.76C529.956 61.28 530.596 61.04 531.439 61.04C532.409 61.04 533.161 61.3333 533.695 61.92C534.239 62.5067 534.511 63.3333 534.511 64.4V65.12H531.951V64.56C531.951 64.08 531.817 63.7067 531.551 63.44C531.295 63.1733 530.948 63.04 530.511 63.04C530.052 63.04 529.7 63.1733 529.455 63.44C529.22 63.7067 529.103 64.08 529.103 64.56V70H526.703ZM537.224 65.84V63.6H542.344V65.84H537.224ZM549.01 70.16C548.285 70.16 547.65 70.048 547.106 69.824C546.562 69.5893 546.135 69.2693 545.826 68.864C545.527 68.4587 545.378 67.984 545.378 67.44H547.778C547.778 67.696 547.89 67.904 548.114 68.064C548.349 68.2133 548.647 68.288 549.01 68.288H549.714C550.151 68.288 550.482 68.208 550.706 68.048C550.941 67.888 551.058 67.664 551.058 67.376C551.058 67.1093 550.957 66.9067 550.754 66.768C550.551 66.6187 550.237 66.5173 549.81 66.464L548.786 66.336C547.687 66.1973 546.887 65.9307 546.386 65.536C545.885 65.1413 545.634 64.5387 545.634 63.728C545.634 62.8747 545.927 62.2133 546.514 61.744C547.101 61.2747 547.959 61.04 549.09 61.04H549.698C550.775 61.04 551.634 61.2747 552.274 61.744C552.914 62.2133 553.234 62.8427 553.234 63.632H550.834C550.834 63.4187 550.727 63.248 550.514 63.12C550.311 62.9813 550.039 62.912 549.698 62.912H549.09C548.695 62.912 548.407 62.9813 548.226 63.12C548.045 63.248 547.954 63.4453 547.954 63.712C547.954 63.9573 548.034 64.144 548.194 64.272C548.365 64.4 548.631 64.4907 548.994 64.544L550.098 64.688C551.207 64.8267 552.029 65.104 552.562 65.52C553.106 65.936 553.378 66.5547 553.378 67.376C553.378 68.272 553.069 68.96 552.45 69.44C551.831 69.92 550.919 70.16 549.714 70.16H549.01ZM554.844 70V61.2H556.732V62.48H557.116L556.812 62.704C556.812 62.2027 556.956 61.8027 557.244 61.504C557.532 61.1947 557.889 61.04 558.316 61.04C558.775 61.04 559.132 61.2373 559.388 61.632C559.644 62.0267 559.772 62.5493 559.772 63.2L559.484 62.48H559.932L559.788 62.704C559.788 62.2027 559.927 61.8027 560.204 61.504C560.481 61.1947 560.855 61.04 561.324 61.04C561.857 61.04 562.289 61.2427 562.62 61.648C562.951 62.0427 563.116 62.5867 563.116 63.28V70H561.052V63.44C561.052 63.1947 560.999 63.008 560.892 62.88C560.785 62.7413 560.631 62.672 560.428 62.672C560.225 62.672 560.071 62.7413 559.964 62.88C559.857 63.008 559.804 63.1947 559.804 63.44V70H558.156V63.44C558.156 63.1947 558.103 63.008 557.996 62.88C557.889 62.7413 557.735 62.672 557.532 62.672C557.329 62.672 557.175 62.7413 557.068 62.88C556.961 63.008 556.908 63.1947 556.908 63.44V70H554.844ZM568.566 70.16C567.787 70.16 567.11 70.016 566.534 69.728C565.958 69.4293 565.51 69.0187 565.19 68.496C564.88 67.9627 564.726 67.344 564.726 66.64V64.56C564.726 63.856 564.88 63.2427 565.19 62.72C565.51 62.1867 565.958 61.776 566.534 61.488C567.11 61.1893 567.787 61.04 568.566 61.04C569.355 61.04 570.032 61.1893 570.598 61.488C571.174 61.776 571.616 62.1867 571.926 62.72C572.246 63.2427 572.406 63.856 572.406 64.56V66.64C572.406 67.344 572.246 67.9627 571.926 68.496C571.616 69.0187 571.174 69.4293 570.598 69.728C570.032 70.016 569.355 70.16 568.566 70.16ZM568.566 68.08C569.035 68.08 569.392 67.9573 569.638 67.712C569.883 67.456 570.006 67.0987 570.006 66.64V64.56C570.006 64.0907 569.883 63.7333 569.638 63.488C569.392 63.2427 569.035 63.12 568.566 63.12C568.107 63.12 567.75 63.2427 567.494 63.488C567.248 63.7333 567.126 64.0907 567.126 64.56V66.64C567.126 67.0987 567.248 67.456 567.494 67.712C567.75 67.9573 568.107 68.08 568.566 68.08ZM578.159 70.16C577.381 70.16 576.703 70.016 576.127 69.728C575.551 69.4293 575.103 69.0187 574.783 68.496C574.474 67.9627 574.319 67.344 574.319 66.64V64.56C574.319 63.856 574.474 63.2427 574.783 62.72C575.103 62.1867 575.551 61.776 576.127 61.488C576.703 61.1893 577.381 61.04 578.159 61.04C578.949 61.04 579.626 61.1893 580.191 61.488C580.767 61.776 581.21 62.1867 581.519 62.72C581.839 63.2427 581.999 63.856 581.999 64.56V66.64C581.999 67.344 581.839 67.9627 581.519 68.496C581.21 69.0187 580.767 69.4293 580.191 69.728C579.626 70.016 578.949 70.16 578.159 70.16ZM578.159 68.08C578.629 68.08 578.986 67.9573 579.231 67.712C579.477 67.456 579.599 67.0987 579.599 66.64V64.56C579.599 64.0907 579.477 63.7333 579.231 63.488C578.986 63.2427 578.629 63.12 578.159 63.12C577.701 63.12 577.343 63.2427 577.087 63.488C576.842 63.7333 576.719 64.0907 576.719 64.56V66.64C576.719 67.0987 576.842 67.456 577.087 67.712C577.343 67.9573 577.701 68.08 578.159 68.08ZM588.713 70C587.817 70 587.113 69.744 586.601 69.232C586.089 68.72 585.833 68.016 585.833 67.12V63.36H583.513V61.2H585.833V58.72H588.233V61.2H591.513V63.36H588.233V67.12C588.233 67.6 588.473 67.84 588.953 67.84H591.353V70H588.713ZM593.603 70V58.32H596.003V61.2L595.923 62.88H596.627L595.923 63.44C595.923 62.6933 596.136 62.1067 596.563 61.68C596.99 61.2533 597.566 61.04 598.291 61.04C599.144 61.04 599.827 61.3387 600.339 61.936C600.862 62.5333 601.123 63.328 601.123 64.32V70H598.723V64.56C598.723 64.1013 598.6 63.7493 598.355 63.504C598.12 63.248 597.784 63.12 597.347 63.12C596.92 63.12 596.59 63.248 596.355 63.504C596.12 63.7493 596.003 64.1013 596.003 64.56V70H593.603ZM603.261 70V67.824H606.301V63.36H603.661V61.2H608.541V67.824H611.101V70H603.261ZM607.261 59.808C606.823 59.808 606.471 59.696 606.205 59.472C605.949 59.248 605.821 58.944 605.821 58.56C605.821 58.176 605.949 57.872 606.205 57.648C606.471 57.424 606.823 57.312 607.261 57.312C607.698 57.312 608.045 57.424 608.301 57.648C608.567 57.872 608.701 58.176 608.701 58.56C608.701 58.944 608.567 59.248 608.301 59.472C608.045 59.696 607.698 59.808 607.261 59.808ZM612.79 70V61.2H615.11V62.88H615.814L615.11 63.44C615.11 62.6933 615.324 62.1067 615.75 61.68C616.177 61.2533 616.753 61.04 617.478 61.04C618.332 61.04 619.014 61.3387 619.526 61.936C620.049 62.5333 620.31 63.328 620.31 64.32V70H617.91V64.56C617.91 64.1013 617.788 63.7493 617.542 63.504C617.308 63.248 616.972 63.12 616.534 63.12C616.108 63.12 615.777 63.248 615.542 63.504C615.308 63.7493 615.19 64.1013 615.19 64.56V70H612.79ZM623.648 72.88V70.96H626.128C626.576 70.96 626.917 70.848 627.152 70.624C627.397 70.4 627.52 70.0907 627.52 69.696V69.36L627.552 67.68H626.992L627.552 67.12C627.552 67.8773 627.344 68.4693 626.928 68.896C626.512 69.312 625.941 69.52 625.216 69.52C624.331 69.52 623.621 69.2107 623.088 68.592C622.555 67.9733 622.288 67.136 622.288 66.08V64.48C622.288 63.4347 622.555 62.6027 623.088 61.984C623.621 61.3547 624.331 61.04 625.216 61.04C625.941 61.04 626.512 61.2533 626.928 61.68C627.344 62.096 627.552 62.6827 627.552 63.44L626.992 62.88H627.552L627.472 61.2H629.872V69.776C629.872 70.736 629.541 71.4933 628.88 72.048C628.229 72.6027 627.339 72.88 626.208 72.88H623.648ZM626.08 67.44C626.517 67.44 626.859 67.3173 627.104 67.072C627.349 66.816 627.472 66.4587 627.472 66V64.56C627.472 64.1013 627.349 63.7493 627.104 63.504C626.859 63.248 626.517 63.12 626.08 63.12C625.632 63.12 625.285 63.248 625.04 63.504C624.805 63.7493 624.688 64.1013 624.688 64.56V66C624.688 66.4587 624.805 66.816 625.04 67.072C625.285 67.3173 625.632 67.44 626.08 67.44ZM635.722 63.92C635.242 63.92 634.853 63.7867 634.554 63.52C634.266 63.2533 634.122 62.9067 634.122 62.48C634.122 62.0427 634.266 61.696 634.554 61.44C634.853 61.1733 635.242 61.04 635.722 61.04C636.202 61.04 636.586 61.1733 636.874 61.44C637.173 61.696 637.322 62.0427 637.322 62.48C637.322 62.9067 637.173 63.2533 636.874 63.52C636.586 63.7867 636.202 63.92 635.722 63.92ZM635.722 70.16C635.242 70.16 634.853 70.0267 634.554 69.76C634.266 69.4933 634.122 69.1467 634.122 68.72C634.122 68.2827 634.266 67.936 634.554 67.68C634.853 67.4133 635.242 67.28 635.722 67.28C636.202 67.28 636.586 67.4133 636.874 67.68C637.173 67.936 637.322 68.2827 637.322 68.72C637.322 69.1467 637.173 69.4933 636.874 69.76C636.586 70.0267 636.202 70.16 635.722 70.16Z" fill="#444444"/>
<path d="M51 208C51 181.49 72.4903 160 99 160H195C221.51 160 243 181.49 243 208V304C243 330.51 221.51 352 195 352H99C72.4903 352 51 330.51 51 304V208Z" fill="#2A90D9"/>
<path d="M141.206 139.16C140.47 139.16 139.83 139.016 139.286 138.728C138.753 138.44 138.337 138.04 138.038 137.528C137.74 137.005 137.59 136.397 137.59 135.704V130.616C137.59 129.912 137.734 129.304 138.022 128.792C138.321 128.28 138.742 127.88 139.286 127.592C139.83 127.304 140.47 127.16 141.206 127.16C141.953 127.16 142.593 127.304 143.126 127.592C143.67 127.88 144.086 128.28 144.374 128.792C144.673 129.304 144.822 129.912 144.822 130.616V135.704C144.822 136.397 144.673 137.005 144.374 137.528C144.076 138.04 143.654 138.44 143.11 138.728C142.577 139.016 141.942 139.16 141.206 139.16ZM141.206 137.672C141.804 137.672 142.278 137.491 142.63 137.128C142.993 136.765 143.174 136.291 143.174 135.704V130.616C143.174 130.029 142.993 129.555 142.63 129.192C142.278 128.829 141.804 128.648 141.206 128.648C140.609 128.648 140.129 128.829 139.766 129.192C139.414 129.555 139.238 130.029 139.238 130.616V135.704C139.238 136.291 139.414 136.765 139.766 137.128C140.129 137.491 140.609 137.672 141.206 137.672ZM141.206 134.152C140.908 134.152 140.662 134.056 140.47 133.864C140.289 133.672 140.198 133.421 140.198 133.112C140.198 132.813 140.289 132.573 140.47 132.392C140.662 132.2 140.908 132.104 141.206 132.104C141.505 132.104 141.745 132.2 141.926 132.392C142.118 132.573 142.214 132.813 142.214 133.112C142.214 133.421 142.118 133.672 141.926 133.864C141.745 134.056 141.505 134.152 141.206 134.152ZM146.08 139L154.192 127.32H155.52L147.408 139H146.08ZM153.104 139.08C152.421 139.08 151.867 138.888 151.44 138.504C151.024 138.109 150.816 137.581 150.816 136.92V135.88C150.816 135.219 151.024 134.696 151.44 134.312C151.867 133.917 152.421 133.72 153.104 133.72C153.776 133.72 154.32 133.917 154.736 134.312C155.163 134.696 155.376 135.219 155.376 135.88V136.92C155.376 137.581 155.163 138.109 154.736 138.504C154.32 138.888 153.776 139.08 153.104 139.08ZM153.104 137.912C153.744 137.912 154.064 137.581 154.064 136.92V135.88C154.064 135.208 153.744 134.872 153.104 134.872C152.453 134.872 152.128 135.208 152.128 135.88V136.92C152.128 137.581 152.453 137.912 153.104 137.912ZM148.496 132.6C147.824 132.6 147.275 132.408 146.848 132.024C146.432 131.64 146.224 131.112 146.224 130.44V129.4C146.224 128.728 146.432 128.2 146.848 127.816C147.275 127.432 147.824 127.24 148.496 127.24C149.168 127.24 149.717 127.432 150.144 127.816C150.571 128.2 150.784 128.728 150.784 129.4V130.44C150.784 131.112 150.571 131.64 150.144 132.024C149.717 132.408 149.168 132.6 148.496 132.6ZM148.496 131.448C149.147 131.448 149.472 131.112 149.472 130.44V129.4C149.472 128.728 149.147 128.392 148.496 128.392C148.187 128.392 147.947 128.477 147.776 128.648C147.616 128.808 147.536 129.059 147.536 129.4V130.44C147.536 130.781 147.616 131.037 147.776 131.208C147.947 131.368 148.187 131.448 148.496 131.448Z" fill="#444444"/>
<path d="M294 222.4C294 209.013 294 202.319 295.326 196.795C299.54 179.243 313.243 165.54 330.795 161.326C336.319 160 343.013 160 356.4 160H423.6C436.987 160 443.681 160 449.205 161.326C466.757 165.54 480.46 179.243 484.674 196.795C486 202.319 486 209.013 486 222.4V289.6C486 302.987 486 309.681 484.674 315.205C480.46 332.757 466.757 346.46 449.205 350.674C443.681 352 436.987 352 423.6 352H356.4C343.013 352 336.319 352 330.795 350.674C313.243 346.46 299.54 332.757 295.326 315.205C294 309.681 294 302.987 294 289.6V222.4Z" fill="#2A90D9"/>
<path d="M379.765 139.16C379.029 139.16 378.389 139.021 377.845 138.744C377.301 138.467 376.88 138.077 376.581 137.576C376.293 137.064 376.149 136.472 376.149 135.8H377.877C377.877 136.387 378.043 136.845 378.373 137.176C378.715 137.507 379.184 137.672 379.781 137.672C380.389 137.672 380.859 137.501 381.189 137.16C381.52 136.819 381.685 136.365 381.685 135.8V134.936C381.685 134.339 381.52 133.88 381.189 133.56C380.859 133.229 380.389 133.064 379.781 133.064H378.533V131.432L381.253 128.84H376.645V127.32H383.013V128.952L379.797 131.976V131.56C380.907 131.56 381.787 131.864 382.437 132.472C383.088 133.08 383.413 133.896 383.413 134.92V135.8C383.413 136.472 383.264 137.064 382.965 137.576C382.667 138.077 382.24 138.467 381.685 138.744C381.141 139.021 380.501 139.16 379.765 139.16ZM389.503 139.16C388.767 139.16 388.127 139.016 387.583 138.728C387.05 138.44 386.634 138.04 386.335 137.528C386.036 137.005 385.887 136.397 385.887 135.704V130.616C385.887 129.912 386.031 129.304 386.319 128.792C386.618 128.28 387.039 127.88 387.583 127.592C388.127 127.304 388.767 127.16 389.503 127.16C390.25 127.16 390.89 127.304 391.423 127.592C391.967 127.88 392.383 128.28 392.671 128.792C392.97 129.304 393.119 129.912 393.119 130.616V135.704C393.119 136.397 392.97 137.005 392.671 137.528C392.372 138.04 391.951 138.44 391.407 138.728C390.874 139.016 390.239 139.16 389.503 139.16ZM389.503 137.672C390.1 137.672 390.575 137.491 390.927 137.128C391.29 136.765 391.471 136.291 391.471 135.704V130.616C391.471 130.029 391.29 129.555 390.927 129.192C390.575 128.829 390.1 128.648 389.503 128.648C388.906 128.648 388.426 128.829 388.063 129.192C387.711 129.555 387.535 130.029 387.535 130.616V135.704C387.535 136.291 387.711 136.765 388.063 137.128C388.426 137.491 388.906 137.672 389.503 137.672ZM389.503 134.152C389.204 134.152 388.959 134.056 388.767 133.864C388.586 133.672 388.495 133.421 388.495 133.112C388.495 132.813 388.586 132.573 388.767 132.392C388.959 132.2 389.204 132.104 389.503 132.104C389.802 132.104 390.042 132.2 390.223 132.392C390.415 132.573 390.511 132.813 390.511 133.112C390.511 133.421 390.415 133.672 390.223 133.864C390.042 134.056 389.802 134.152 389.503 134.152ZM394.377 139L402.489 127.32H403.817L395.705 139H394.377ZM401.401 139.08C400.718 139.08 400.164 138.888 399.737 138.504C399.321 138.109 399.113 137.581 399.113 136.92V135.88C399.113 135.219 399.321 134.696 399.737 134.312C400.164 133.917 400.718 133.72 401.401 133.72C402.073 133.72 402.617 133.917 403.033 134.312C403.46 134.696 403.673 135.219 403.673 135.88V136.92C403.673 137.581 403.46 138.109 403.033 138.504C402.617 138.888 402.073 139.08 401.401 139.08ZM401.401 137.912C402.041 137.912 402.361 137.581 402.361 136.92V135.88C402.361 135.208 402.041 134.872 401.401 134.872C400.75 134.872 400.425 135.208 400.425 135.88V136.92C400.425 137.581 400.75 137.912 401.401 137.912ZM396.793 132.6C396.121 132.6 395.572 132.408 395.145 132.024C394.729 131.64 394.521 131.112 394.521 130.44V129.4C394.521 128.728 394.729 128.2 395.145 127.816C395.572 127.432 396.121 127.24 396.793 127.24C397.465 127.24 398.014 127.432 398.441 127.816C398.868 128.2 399.081 128.728 399.081 129.4V130.44C399.081 131.112 398.868 131.64 398.441 132.024C398.014 132.408 397.465 132.6 396.793 132.6ZM396.793 131.448C397.444 131.448 397.769 131.112 397.769 130.44V129.4C397.769 128.728 397.444 128.392 396.793 128.392C396.484 128.392 396.244 128.477 396.073 128.648C395.913 128.808 395.833 129.059 395.833 129.4V130.44C395.833 130.781 395.913 131.037 396.073 131.208C396.244 131.368 396.484 131.448 396.793 131.448Z" fill="#444444"/>
<path d="M538 236.8C538 209.917 538 196.476 543.232 186.208C547.834 177.177 555.177 169.834 564.208 165.232C574.476 160 587.917 160 614.8 160H653.2C680.083 160 693.524 160 703.792 165.232C712.823 169.834 720.166 177.177 724.768 186.208C730 196.476 730 209.917 730 236.8V275.2C730 302.083 730 315.524 724.768 325.792C720.166 334.823 712.823 342.166 703.792 346.768C693.524 352 680.083 352 653.2 352H614.8C587.917 352 574.476 352 564.208 346.768C555.177 342.166 547.834 334.823 543.232 325.792C538 315.524 538 302.083 538 275.2V236.8Z" fill="#2A90D9"/>
<path d="M623.925 139.16C623.157 139.16 622.485 139 621.909 138.68C621.333 138.36 620.885 137.912 620.565 137.336C620.245 136.749 620.085 136.077 620.085 135.32C620.085 134.744 620.171 134.168 620.341 133.592C620.523 133.005 620.779 132.445 621.109 131.912L623.957 127.32H625.877L622.485 132.696L622.565 132.744C622.779 132.435 623.061 132.2 623.413 132.04C623.776 131.869 624.176 131.784 624.613 131.784C625.243 131.784 625.792 131.933 626.261 132.232C626.731 132.531 627.093 132.952 627.349 133.496C627.605 134.029 627.733 134.664 627.733 135.4C627.733 136.147 627.573 136.803 627.253 137.368C626.933 137.933 626.491 138.376 625.925 138.696C625.36 139.005 624.693 139.16 623.925 139.16ZM623.909 137.672C624.549 137.672 625.061 137.464 625.445 137.048C625.829 136.632 626.021 136.083 626.021 135.4C626.021 134.717 625.829 134.168 625.445 133.752C625.061 133.336 624.549 133.128 623.909 133.128C623.269 133.128 622.757 133.336 622.373 133.752C621.989 134.168 621.797 134.717 621.797 135.4C621.797 136.083 621.989 136.632 622.373 137.048C622.757 137.464 623.269 137.672 623.909 137.672ZM633.503 139.16C632.767 139.16 632.127 139.016 631.583 138.728C631.05 138.44 630.634 138.04 630.335 137.528C630.036 137.005 629.887 136.397 629.887 135.704V130.616C629.887 129.912 630.031 129.304 630.319 128.792C630.618 128.28 631.039 127.88 631.583 127.592C632.127 127.304 632.767 127.16 633.503 127.16C634.25 127.16 634.89 127.304 635.423 127.592C635.967 127.88 636.383 128.28 636.671 128.792C636.97 129.304 637.119 129.912 637.119 130.616V135.704C637.119 136.397 636.97 137.005 636.671 137.528C636.372 138.04 635.951 138.44 635.407 138.728C634.874 139.016 634.239 139.16 633.503 139.16ZM633.503 137.672C634.1 137.672 634.575 137.491 634.927 137.128C635.29 136.765 635.471 136.291 635.471 135.704V130.616C635.471 130.029 635.29 129.555 634.927 129.192C634.575 128.829 634.1 128.648 633.503 128.648C632.906 128.648 632.426 128.829 632.063 129.192C631.711 129.555 631.535 130.029 631.535 130.616V135.704C631.535 136.291 631.711 136.765 632.063 137.128C632.426 137.491 632.906 137.672 633.503 137.672ZM633.503 134.152C633.204 134.152 632.959 134.056 632.767 133.864C632.586 133.672 632.495 133.421 632.495 133.112C632.495 132.813 632.586 132.573 632.767 132.392C632.959 132.2 633.204 132.104 633.503 132.104C633.802 132.104 634.042 132.2 634.223 132.392C634.415 132.573 634.511 132.813 634.511 133.112C634.511 133.421 634.415 133.672 634.223 133.864C634.042 134.056 633.802 134.152 633.503 134.152ZM638.377 139L646.489 127.32H647.817L639.705 139H638.377ZM645.401 139.08C644.718 139.08 644.164 138.888 643.737 138.504C643.321 138.109 643.113 137.581 643.113 136.92V135.88C643.113 135.219 643.321 134.696 643.737 134.312C644.164 133.917 644.718 133.72 645.401 133.72C646.073 133.72 646.617 133.917 647.033 134.312C647.46 134.696 647.673 135.219 647.673 135.88V136.92C647.673 137.581 647.46 138.109 647.033 138.504C646.617 138.888 646.073 139.08 645.401 139.08ZM645.401 137.912C646.041 137.912 646.361 137.581 646.361 136.92V135.88C646.361 135.208 646.041 134.872 645.401 134.872C644.75 134.872 644.425 135.208 644.425 135.88V136.92C644.425 137.581 644.75 137.912 645.401 137.912ZM640.793 132.6C640.121 132.6 639.572 132.408 639.145 132.024C638.729 131.64 638.521 131.112 638.521 130.44V129.4C638.521 128.728 638.729 128.2 639.145 127.816C639.572 127.432 640.121 127.24 640.793 127.24C641.465 127.24 642.014 127.432 642.441 127.816C642.868 128.2 643.081 128.728 643.081 129.4V130.44C643.081 131.112 642.868 131.64 642.441 132.024C642.014 132.408 641.465 132.6 640.793 132.6ZM640.793 131.448C641.444 131.448 641.769 131.112 641.769 130.44V129.4C641.769 128.728 641.444 128.392 640.793 128.392C640.484 128.392 640.244 128.477 640.073 128.648C639.913 128.808 639.833 129.059 639.833 129.4V130.44C639.833 130.781 639.913 131.037 640.073 131.208C640.244 131.368 640.484 131.448 640.793 131.448Z" fill="#444444"/>
<rect x="612" y="368" width="44" height="16" rx="4" fill="#D9D9D9"/>
<path d="M616.72 380V373.4H617.8V374.24H618.04L617.86 374.492C617.86 374.124 617.96 373.832 618.16 373.616C618.36 373.392 618.628 373.28 618.964 373.28C619.324 373.28 619.6 373.42 619.792 373.7C619.992 373.98 620.092 374.364 620.092 374.852L619.804 374.24H620.26L620.068 374.492C620.068 374.124 620.168 373.832 620.368 373.616C620.576 373.392 620.852 373.28 621.196 373.28C621.604 373.28 621.924 373.436 622.156 373.748C622.388 374.052 622.504 374.46 622.504 374.972V380H621.352V375.008C621.352 374.76 621.296 374.568 621.184 374.432C621.08 374.296 620.928 374.228 620.728 374.228C620.528 374.228 620.372 374.296 620.26 374.432C620.156 374.56 620.104 374.748 620.104 374.996V380H619.132V375.008C619.132 374.752 619.076 374.56 618.964 374.432C618.852 374.296 618.692 374.228 618.484 374.228C618.284 374.228 618.132 374.296 618.028 374.432C617.932 374.56 617.884 374.748 617.884 374.996V380H616.72ZM626.147 380.12C625.459 380.12 624.915 379.944 624.515 379.592C624.123 379.232 623.927 378.744 623.927 378.128C623.927 377.504 624.135 377.016 624.551 376.664C624.975 376.304 625.555 376.124 626.291 376.124H628.127V375.512C628.127 375.152 628.015 374.872 627.791 374.672C627.567 374.472 627.251 374.372 626.843 374.372C626.483 374.372 626.183 374.452 625.943 374.612C625.703 374.764 625.563 374.968 625.523 375.224H624.251C624.323 374.632 624.595 374.16 625.067 373.808C625.547 373.456 626.151 373.28 626.879 373.28C627.663 373.28 628.283 373.48 628.739 373.88C629.195 374.272 629.423 374.808 629.423 375.488V380H628.163V378.788H627.947L628.163 378.548C628.163 379.028 627.979 379.412 627.611 379.7C627.243 379.98 626.755 380.12 626.147 380.12ZM626.531 379.124C626.995 379.124 627.375 379.008 627.671 378.776C627.975 378.536 628.127 378.232 628.127 377.864V377H626.315C625.979 377 625.711 377.092 625.511 377.276C625.319 377.46 625.223 377.712 625.223 378.032C625.223 378.368 625.339 378.636 625.571 378.836C625.803 379.028 626.123 379.124 626.531 379.124ZM634.05 380.12C633.506 380.12 633.026 380.02 632.61 379.82C632.202 379.612 631.886 379.316 631.662 378.932C631.446 378.54 631.338 378.084 631.338 377.564V375.836C631.338 375.308 631.446 374.852 631.662 374.468C631.886 374.084 632.202 373.792 632.61 373.592C633.026 373.384 633.506 373.28 634.05 373.28C634.842 373.28 635.478 373.488 635.958 373.904C636.438 374.32 636.69 374.888 636.714 375.608H635.418C635.394 375.232 635.262 374.94 635.022 374.732C634.782 374.524 634.458 374.42 634.05 374.42C633.61 374.42 633.262 374.544 633.006 374.792C632.75 375.032 632.622 375.376 632.622 375.824V377.564C632.622 378.012 632.75 378.36 633.006 378.608C633.262 378.856 633.61 378.98 634.05 378.98C634.458 378.98 634.782 378.876 635.022 378.668C635.262 378.46 635.394 378.168 635.418 377.792H636.714C636.69 378.512 636.438 379.08 635.958 379.496C635.478 379.912 634.842 380.12 634.05 380.12ZM641.198 380.12C640.654 380.12 640.182 380.02 639.782 379.82C639.39 379.612 639.086 379.316 638.87 378.932C638.662 378.54 638.558 378.084 638.558 377.564V373.676C638.558 373.148 638.662 372.692 638.87 372.308C639.086 371.924 639.39 371.632 639.782 371.432C640.182 371.224 640.654 371.12 641.198 371.12C641.742 371.12 642.21 371.224 642.602 371.432C643.002 371.632 643.306 371.924 643.514 372.308C643.73 372.692 643.838 373.144 643.838 373.664V377.564C643.838 378.084 643.73 378.54 643.514 378.932C643.306 379.316 643.002 379.612 642.602 379.82C642.21 380.02 641.742 380.12 641.198 380.12ZM641.198 378.968C641.638 378.968 641.97 378.848 642.194 378.608C642.426 378.36 642.542 378.012 642.542 377.564V373.676C642.542 373.22 642.426 372.872 642.194 372.632C641.97 372.392 641.638 372.272 641.198 372.272C640.766 372.272 640.434 372.392 640.202 372.632C639.97 372.872 639.854 373.22 639.854 373.676V377.564C639.854 378.012 639.97 378.36 640.202 378.608C640.434 378.848 640.766 378.968 641.198 378.968ZM648.429 380.12C647.837 380.12 647.329 380.024 646.905 379.832C646.481 379.632 646.153 379.352 645.921 378.992C645.689 378.624 645.573 378.188 645.573 377.684H646.857C646.857 378.084 646.997 378.4 647.277 378.632C647.557 378.856 647.945 378.968 648.441 378.968C648.905 378.968 649.269 378.856 649.533 378.632C649.797 378.408 649.929 378.1 649.929 377.708C649.929 377.38 649.837 377.096 649.653 376.856C649.477 376.616 649.221 376.452 648.885 376.364L647.781 376.04C647.141 375.856 646.645 375.544 646.293 375.104C645.949 374.656 645.777 374.124 645.777 373.508C645.777 373.028 645.885 372.608 646.101 372.248C646.317 371.888 646.625 371.608 647.025 371.408C647.425 371.208 647.897 371.108 648.441 371.108C649.241 371.108 649.881 371.324 650.361 371.756C650.849 372.188 651.097 372.768 651.105 373.496H649.809C649.809 373.112 649.685 372.812 649.437 372.596C649.197 372.372 648.857 372.26 648.417 372.26C647.993 372.26 647.661 372.364 647.421 372.572C647.181 372.772 647.061 373.056 647.061 373.424C647.061 373.752 647.149 374.036 647.325 374.276C647.509 374.516 647.769 374.684 648.105 374.78L649.221 375.116C649.861 375.292 650.353 375.604 650.697 376.052C651.041 376.5 651.213 377.036 651.213 377.66C651.213 378.148 651.097 378.58 650.865 378.956C650.633 379.324 650.309 379.612 649.893 379.82C649.477 380.02 648.989 380.12 648.429 380.12Z" fill="#444444"/>
<path d="M781 256C781 210.745 781 188.118 795.059 174.059C809.118 160 831.745 160 877 160V160C922.255 160 944.882 160 958.941 174.059C973 188.118 973 210.745 973 256V256C973 301.255 973 323.882 958.941 337.941C944.882 352 922.255 352 877 352V352C831.745 352 809.118 352 795.059 337.941C781 323.882 781 301.255 781 256V256Z" fill="#2A90D9"/>
<path d="M858.705 139V137.464H861.809V128.824L858.689 131.144V129.272L861.361 127.32H863.537V137.464H866.049V139H858.705ZM871.706 139.16C870.97 139.16 870.33 139.016 869.786 138.728C869.253 138.44 868.837 138.04 868.538 137.528C868.24 137.005 868.09 136.397 868.09 135.704V130.616C868.09 129.912 868.234 129.304 868.522 128.792C868.821 128.28 869.242 127.88 869.786 127.592C870.33 127.304 870.97 127.16 871.706 127.16C872.453 127.16 873.093 127.304 873.626 127.592C874.17 127.88 874.586 128.28 874.874 128.792C875.173 129.304 875.322 129.912 875.322 130.616V135.704C875.322 136.397 875.173 137.005 874.874 137.528C874.576 138.04 874.154 138.44 873.61 138.728C873.077 139.016 872.442 139.16 871.706 139.16ZM871.706 137.672C872.304 137.672 872.778 137.491 873.13 137.128C873.493 136.765 873.674 136.291 873.674 135.704V130.616C873.674 130.029 873.493 129.555 873.13 129.192C872.778 128.829 872.304 128.648 871.706 128.648C871.109 128.648 870.629 128.829 870.266 129.192C869.914 129.555 869.738 130.029 869.738 130.616V135.704C869.738 136.291 869.914 136.765 870.266 137.128C870.629 137.491 871.109 137.672 871.706 137.672ZM871.706 134.152C871.408 134.152 871.162 134.056 870.97 133.864C870.789 133.672 870.698 133.421 870.698 133.112C870.698 132.813 870.789 132.573 870.97 132.392C871.162 132.2 871.408 132.104 871.706 132.104C872.005 132.104 872.245 132.2 872.426 132.392C872.618 132.573 872.714 132.813 872.714 133.112C872.714 133.421 872.618 133.672 872.426 133.864C872.245 134.056 872.005 134.152 871.706 134.152ZM881.3 139.16C880.564 139.16 879.924 139.016 879.38 138.728C878.847 138.44 878.431 138.04 878.132 137.528C877.833 137.005 877.684 136.397 877.684 135.704V130.616C877.684 129.912 877.828 129.304 878.116 128.792C878.415 128.28 878.836 127.88 879.38 127.592C879.924 127.304 880.564 127.16 881.3 127.16C882.047 127.16 882.687 127.304 883.22 127.592C883.764 127.88 884.18 128.28 884.468 128.792C884.767 129.304 884.916 129.912 884.916 130.616V135.704C884.916 136.397 884.767 137.005 884.468 137.528C884.169 138.04 883.748 138.44 883.204 138.728C882.671 139.016 882.036 139.16 881.3 139.16ZM881.3 137.672C881.897 137.672 882.372 137.491 882.724 137.128C883.087 136.765 883.268 136.291 883.268 135.704V130.616C883.268 130.029 883.087 129.555 882.724 129.192C882.372 128.829 881.897 128.648 881.3 128.648C880.703 128.648 880.223 128.829 879.86 129.192C879.508 129.555 879.332 130.029 879.332 130.616V135.704C879.332 136.291 879.508 136.765 879.86 137.128C880.223 137.491 880.703 137.672 881.3 137.672ZM881.3 134.152C881.001 134.152 880.756 134.056 880.564 133.864C880.383 133.672 880.292 133.421 880.292 133.112C880.292 132.813 880.383 132.573 880.564 132.392C880.756 132.2 881.001 132.104 881.3 132.104C881.599 132.104 881.839 132.2 882.02 132.392C882.212 132.573 882.308 132.813 882.308 133.112C882.308 133.421 882.212 133.672 882.02 133.864C881.839 134.056 881.599 134.152 881.3 134.152ZM886.174 139L894.286 127.32H895.614L887.502 139H886.174ZM893.198 139.08C892.515 139.08 891.96 138.888 891.534 138.504C891.118 138.109 890.91 137.581 890.91 136.92V135.88C890.91 135.219 891.118 134.696 891.534 134.312C891.96 133.917 892.515 133.72 893.198 133.72C893.87 133.72 894.414 133.917 894.83 134.312C895.256 134.696 895.47 135.219 895.47 135.88V136.92C895.47 137.581 895.256 138.109 894.83 138.504C894.414 138.888 893.87 139.08 893.198 139.08ZM893.198 137.912C893.838 137.912 894.158 137.581 894.158 136.92V135.88C894.158 135.208 893.838 134.872 893.198 134.872C892.547 134.872 892.222 135.208 892.222 135.88V136.92C892.222 137.581 892.547 137.912 893.198 137.912ZM888.59 132.6C887.918 132.6 887.368 132.408 886.942 132.024C886.526 131.64 886.318 131.112 886.318 130.44V129.4C886.318 128.728 886.526 128.2 886.942 127.816C887.368 127.432 887.918 127.24 888.59 127.24C889.262 127.24 889.811 127.432 890.238 127.816C890.664 128.2 890.878 128.728 890.878 129.4V130.44C890.878 131.112 890.664 131.64 890.238 132.024C889.811 132.408 889.262 132.6 888.59 132.6ZM888.59 131.448C889.24 131.448 889.566 131.112 889.566 130.44V129.4C889.566 128.728 889.24 128.392 888.59 128.392C888.28 128.392 888.04 128.477 887.87 128.648C887.71 128.808 887.63 129.059 887.63 129.4V130.44C887.63 130.781 887.71 131.037 887.87 131.208C888.04 131.368 888.28 131.448 888.59 131.448Z" fill="#444444"/>
<path d="M441.356 444L440.336 437.4H441.428L442.04 441.756C442.072 441.956 442.1 442.18 442.124 442.428C442.156 442.668 442.18 442.868 442.196 443.028C442.212 442.868 442.236 442.668 442.268 442.428C442.308 442.188 442.344 441.964 442.376 441.756L443.06 437.4H444.152L444.824 441.756C444.856 441.964 444.888 442.192 444.92 442.44C444.96 442.68 444.988 442.88 445.004 443.04C445.02 442.872 445.044 442.668 445.076 442.428C445.116 442.18 445.152 441.956 445.184 441.756L445.808 437.4H446.864L445.808 444H444.44L443.792 439.692C443.76 439.468 443.724 439.232 443.684 438.984C443.644 438.728 443.616 438.524 443.6 438.372C443.576 438.524 443.544 438.728 443.504 438.984C443.472 439.232 443.44 439.468 443.408 439.692L442.736 444H441.356ZM448.167 444V442.824H450.483V438.576H448.467V437.4H451.743V442.824H453.867V444H448.167ZM450.987 436.26C450.707 436.26 450.483 436.188 450.315 436.044C450.147 435.892 450.063 435.692 450.063 435.444C450.063 435.188 450.147 434.988 450.315 434.844C450.483 434.692 450.707 434.616 450.987 434.616C451.267 434.616 451.491 434.692 451.659 434.844C451.827 434.988 451.911 435.188 451.911 435.444C451.911 435.692 451.827 435.892 451.659 436.044C451.491 436.188 451.267 436.26 450.987 436.26ZM457.523 444.12C456.859 444.12 456.327 443.896 455.927 443.448C455.527 443 455.327 442.396 455.327 441.636V439.776C455.327 439.008 455.527 438.4 455.927 437.952C456.327 437.504 456.859 437.28 457.523 437.28C458.067 437.28 458.499 437.432 458.819 437.736C459.139 438.032 459.299 438.44 459.299 438.96L459.023 438.66H459.323L459.287 437.124V435.24H460.583V444H459.299V442.74H459.023L459.299 442.44C459.299 442.96 459.139 443.372 458.819 443.676C458.499 443.972 458.067 444.12 457.523 444.12ZM457.967 442.992C458.375 442.992 458.695 442.868 458.927 442.62C459.167 442.364 459.287 442.012 459.287 441.564V439.836C459.287 439.388 459.167 439.04 458.927 438.792C458.695 438.536 458.375 438.408 457.967 438.408C457.543 438.408 457.211 438.532 456.971 438.78C456.731 439.02 456.611 439.372 456.611 439.836V441.564C456.611 442.028 456.731 442.384 456.971 442.632C457.211 442.872 457.543 442.992 457.967 442.992ZM465.906 444C465.306 444 464.838 443.836 464.502 443.508C464.166 443.18 463.998 442.724 463.998 442.14V438.576H462.174V437.4H463.998V435.54H465.294V437.4H467.874V438.576H465.294V442.14C465.294 442.596 465.514 442.824 465.954 442.824H467.754V444H465.906ZM469.789 444V435.24H471.085V437.4L471.073 438.66H471.385L471.073 438.96C471.073 438.432 471.229 438.02 471.541 437.724C471.853 437.428 472.285 437.28 472.837 437.28C473.493 437.28 474.017 437.492 474.409 437.916C474.801 438.332 474.997 438.896 474.997 439.608V444H473.701V439.752C473.701 439.32 473.585 438.984 473.353 438.744C473.121 438.504 472.805 438.384 472.405 438.384C471.997 438.384 471.673 438.512 471.433 438.768C471.201 439.016 471.085 439.372 471.085 439.836V444H469.789ZM479.577 439.188C479.265 439.188 479.009 439.1 478.809 438.924C478.617 438.748 478.521 438.516 478.521 438.228C478.521 437.94 478.617 437.712 478.809 437.544C479.009 437.368 479.265 437.28 479.577 437.28C479.897 437.28 480.153 437.368 480.345 437.544C480.537 437.712 480.633 437.94 480.633 438.228C480.633 438.516 480.537 438.748 480.345 438.924C480.153 439.1 479.897 439.188 479.577 439.188ZM479.577 444.12C479.265 444.12 479.009 444.032 478.809 443.856C478.617 443.68 478.521 443.452 478.521 443.172C478.521 442.876 478.617 442.644 478.809 442.476C479.009 442.3 479.265 442.212 479.577 442.212C479.897 442.212 480.153 442.3 480.345 442.476C480.537 442.644 480.633 442.876 480.633 443.172C480.633 443.452 480.537 443.68 480.345 443.856C480.153 444.032 479.897 444.12 479.577 444.12ZM548.974 444V442.848H551.302V436.368L548.962 438.108V436.704L550.966 435.24H552.598V442.848H554.482V444H548.974ZM557.249 444L559.793 439.968L559.733 439.932C559.573 440.164 559.357 440.344 559.085 440.472C558.821 440.592 558.525 440.652 558.197 440.652C557.725 440.652 557.313 440.54 556.961 440.316C556.609 440.092 556.337 439.776 556.145 439.368C555.953 438.96 555.857 438.484 555.857 437.94C555.857 437.372 555.977 436.88 556.217 436.464C556.457 436.04 556.789 435.712 557.213 435.48C557.645 435.24 558.145 435.12 558.713 435.12C559.289 435.12 559.793 435.24 560.225 435.48C560.657 435.72 560.993 436.056 561.233 436.488C561.473 436.92 561.593 437.424 561.593 438C561.593 438.424 561.525 438.856 561.389 439.296C561.261 439.736 561.073 440.156 560.825 440.556L558.689 444H557.249ZM558.725 439.644C559.205 439.644 559.589 439.488 559.877 439.176C560.165 438.864 560.309 438.452 560.309 437.94C560.309 437.428 560.165 437.016 559.877 436.704C559.589 436.392 559.205 436.236 558.725 436.236C558.245 436.236 557.861 436.392 557.573 436.704C557.285 437.016 557.141 437.428 557.141 437.94C557.141 438.452 557.285 438.864 557.573 439.176C557.861 439.488 558.245 439.644 558.725 439.644ZM563.34 444V442.716L566.052 439.92C566.468 439.488 566.772 439.1 566.964 438.756C567.164 438.404 567.264 438.056 567.264 437.712C567.264 437.264 567.14 436.912 566.892 436.656C566.652 436.4 566.32 436.272 565.896 436.272C565.432 436.272 565.064 436.408 564.792 436.68C564.528 436.944 564.396 437.308 564.396 437.772H563.1C563.116 437.228 563.24 436.76 563.472 436.368C563.704 435.968 564.028 435.66 564.444 435.444C564.86 435.228 565.348 435.12 565.908 435.12C566.444 435.12 566.912 435.224 567.312 435.432C567.712 435.64 568.02 435.932 568.236 436.308C568.452 436.684 568.56 437.128 568.56 437.64C568.56 438.16 568.424 438.668 568.152 439.164C567.888 439.66 567.452 440.212 566.844 440.82L564.864 442.824H568.692V444H563.34ZM570.524 446.16V437.4H571.808V438.66H572.084L571.808 438.96C571.808 438.44 571.968 438.032 572.288 437.736C572.616 437.432 573.052 437.28 573.596 437.28C574.26 437.28 574.788 437.504 575.18 437.952C575.58 438.392 575.78 438.996 575.78 439.764V441.624C575.78 442.136 575.688 442.58 575.504 442.956C575.328 443.324 575.076 443.612 574.748 443.82C574.428 444.02 574.044 444.12 573.596 444.12C573.06 444.12 572.628 443.972 572.3 443.676C571.972 443.372 571.808 442.96 571.808 442.44L572.084 442.74H571.784L571.82 444.276V446.16H570.524ZM573.152 442.992C573.576 442.992 573.904 442.872 574.136 442.632C574.376 442.384 574.496 442.028 574.496 441.564V439.836C574.496 439.372 574.376 439.02 574.136 438.78C573.904 438.532 573.576 438.408 573.152 438.408C572.744 438.408 572.42 438.536 572.18 438.792C571.94 439.04 571.82 439.388 571.82 439.836V441.564C571.82 442.012 571.94 442.364 572.18 442.62C572.42 442.868 572.744 442.992 573.152 442.992ZM577.227 444L579.543 440.592L577.371 437.4H578.859L580.023 439.224C580.079 439.32 580.135 439.424 580.191 439.536C580.247 439.64 580.291 439.728 580.323 439.8C580.347 439.728 580.387 439.64 580.443 439.536C580.499 439.424 580.555 439.32 580.611 439.224L581.775 437.4H583.263L581.091 440.604L583.395 444H581.907L580.623 442.02C580.567 441.924 580.511 441.816 580.455 441.696C580.399 441.576 580.355 441.48 580.323 441.408C580.291 441.48 580.243 441.576 580.179 441.696C580.123 441.816 580.063 441.924 579.999 442.02L578.703 444H577.227ZM441.008 460V451.24H442.304V453.4L442.292 454.66H442.604L442.292 454.96C442.292 454.432 442.448 454.02 442.76 453.724C443.072 453.428 443.504 453.28 444.056 453.28C444.712 453.28 445.236 453.492 445.628 453.916C446.02 454.332 446.216 454.896 446.216 455.608V460H444.92V455.752C444.92 455.32 444.804 454.984 444.572 454.744C444.34 454.504 444.024 454.384 443.624 454.384C443.216 454.384 442.892 454.512 442.652 454.768C442.42 455.016 442.304 455.372 442.304 455.836V460H441.008ZM450.795 460.12C450.259 460.12 449.787 460.016 449.379 459.808C448.979 459.592 448.671 459.292 448.455 458.908C448.239 458.524 448.131 458.076 448.131 457.564V455.836C448.131 455.316 448.239 454.868 448.455 454.492C448.671 454.108 448.979 453.812 449.379 453.604C449.787 453.388 450.259 453.28 450.795 453.28C451.339 453.28 451.811 453.388 452.211 453.604C452.611 453.812 452.919 454.108 453.135 454.492C453.351 454.868 453.459 455.316 453.459 455.836V457.012H449.379V457.564C449.379 458.052 449.499 458.424 449.739 458.68C449.987 458.936 450.343 459.064 450.807 459.064C451.183 459.064 451.487 459 451.719 458.872C451.951 458.736 452.095 458.54 452.151 458.284H453.435C453.339 458.844 453.051 459.292 452.571 459.628C452.091 459.956 451.499 460.12 450.795 460.12ZM452.211 456.232V455.824C452.211 455.344 452.091 454.972 451.851 454.708C451.611 454.444 451.259 454.312 450.795 454.312C450.339 454.312 449.987 454.444 449.739 454.708C449.499 454.972 449.379 455.348 449.379 455.836V456.136L452.307 456.124L452.211 456.232ZM455.363 460V458.824H457.679V454.576H455.663V453.4H458.939V458.824H461.063V460H455.363ZM458.183 452.26C457.903 452.26 457.679 452.188 457.511 452.044C457.343 451.892 457.259 451.692 457.259 451.444C457.259 451.188 457.343 450.988 457.511 450.844C457.679 450.692 457.903 450.616 458.183 450.616C458.463 450.616 458.687 450.692 458.855 450.844C459.023 450.988 459.107 451.188 459.107 451.444C459.107 451.692 459.023 451.892 458.855 452.044C458.687 452.188 458.463 452.26 458.183 452.26ZM463.458 462.16V461.044H465.486C465.822 461.044 466.07 460.964 466.23 460.804C466.398 460.644 466.482 460.408 466.482 460.096V459.436L466.506 458.212H466.23L466.494 457.972C466.494 458.476 466.334 458.872 466.014 459.16C465.702 459.448 465.278 459.592 464.742 459.592C464.062 459.592 463.526 459.368 463.134 458.92C462.742 458.472 462.546 457.868 462.546 457.108V455.764C462.546 455.004 462.742 454.4 463.134 453.952C463.526 453.504 464.062 453.28 464.742 453.28C465.278 453.28 465.702 453.428 466.014 453.724C466.334 454.012 466.494 454.408 466.494 454.912L466.23 454.66H466.494L466.482 453.4H467.766V460.12C467.766 460.752 467.566 461.248 467.166 461.608C466.766 461.976 466.21 462.16 465.498 462.16H463.458ZM465.162 458.476C465.57 458.476 465.89 458.352 466.122 458.104C466.362 457.848 466.482 457.496 466.482 457.048V455.836C466.482 455.388 466.362 455.04 466.122 454.792C465.89 454.536 465.57 454.408 465.162 454.408C464.738 454.408 464.41 454.532 464.178 454.78C463.954 455.02 463.842 455.372 463.842 455.836V457.048C463.842 457.504 463.954 457.856 464.178 458.104C464.41 458.352 464.738 458.476 465.162 458.476ZM469.789 460V451.24H471.085V453.4L471.073 454.66H471.385L471.073 454.96C471.073 454.432 471.229 454.02 471.541 453.724C471.853 453.428 472.285 453.28 472.837 453.28C473.493 453.28 474.017 453.492 474.409 453.916C474.801 454.332 474.997 454.896 474.997 455.608V460H473.701V455.752C473.701 455.32 473.585 454.984 473.353 454.744C473.121 454.504 472.805 454.384 472.405 454.384C471.997 454.384 471.673 454.512 471.433 454.768C471.201 455.016 471.085 455.372 471.085 455.836V460H469.789ZM480.297 460C479.697 460 479.229 459.836 478.893 459.508C478.557 459.18 478.389 458.724 478.389 458.14V454.576H476.565V453.4H478.389V451.54H479.685V453.4H482.265V454.576H479.685V458.14C479.685 458.596 479.905 458.824 480.345 458.824H482.145V460H480.297ZM486.772 455.188C486.46 455.188 486.204 455.1 486.004 454.924C485.812 454.748 485.716 454.516 485.716 454.228C485.716 453.94 485.812 453.712 486.004 453.544C486.204 453.368 486.46 453.28 486.772 453.28C487.092 453.28 487.348 453.368 487.54 453.544C487.732 453.712 487.828 453.94 487.828 454.228C487.828 454.516 487.732 454.748 487.54 454.924C487.348 455.1 487.092 455.188 486.772 455.188ZM486.772 460.12C486.46 460.12 486.204 460.032 486.004 459.856C485.812 459.68 485.716 459.452 485.716 459.172C485.716 458.876 485.812 458.644 486.004 458.476C486.204 458.3 486.46 458.212 486.772 458.212C487.092 458.212 487.348 458.3 487.54 458.476C487.732 458.644 487.828 458.876 487.828 459.172C487.828 459.452 487.732 459.68 487.54 459.856C487.348 460.032 487.092 460.12 486.772 460.12ZM548.974 460V458.848H551.302V452.368L548.962 454.108V452.704L550.966 451.24H552.598V458.848H554.482V460H548.974ZM557.249 460L559.793 455.968L559.733 455.932C559.573 456.164 559.357 456.344 559.085 456.472C558.821 456.592 558.525 456.652 558.197 456.652C557.725 456.652 557.313 456.54 556.961 456.316C556.609 456.092 556.337 455.776 556.145 455.368C555.953 454.96 555.857 454.484 555.857 453.94C555.857 453.372 555.977 452.88 556.217 452.464C556.457 452.04 556.789 451.712 557.213 451.48C557.645 451.24 558.145 451.12 558.713 451.12C559.289 451.12 559.793 451.24 560.225 451.48C560.657 451.72 560.993 452.056 561.233 452.488C561.473 452.92 561.593 453.424 561.593 454C561.593 454.424 561.525 454.856 561.389 455.296C561.261 455.736 561.073 456.156 560.825 456.556L558.689 460H557.249ZM558.725 455.644C559.205 455.644 559.589 455.488 559.877 455.176C560.165 454.864 560.309 454.452 560.309 453.94C560.309 453.428 560.165 453.016 559.877 452.704C559.589 452.392 559.205 452.236 558.725 452.236C558.245 452.236 557.861 452.392 557.573 452.704C557.285 453.016 557.141 453.428 557.141 453.94C557.141 454.452 557.285 454.864 557.573 455.176C557.861 455.488 558.245 455.644 558.725 455.644ZM563.34 460V458.716L566.052 455.92C566.468 455.488 566.772 455.1 566.964 454.756C567.164 454.404 567.264 454.056 567.264 453.712C567.264 453.264 567.14 452.912 566.892 452.656C566.652 452.4 566.32 452.272 565.896 452.272C565.432 452.272 565.064 452.408 564.792 452.68C564.528 452.944 564.396 453.308 564.396 453.772H563.1C563.116 453.228 563.24 452.76 563.472 452.368C563.704 451.968 564.028 451.66 564.444 451.444C564.86 451.228 565.348 451.12 565.908 451.12C566.444 451.12 566.912 451.224 567.312 451.432C567.712 451.64 568.02 451.932 568.236 452.308C568.452 452.684 568.56 453.128 568.56 453.64C568.56 454.16 568.424 454.668 568.152 455.164C567.888 455.66 567.452 456.212 566.844 456.82L564.864 458.824H568.692V460H563.34ZM570.524 462.16V453.4H571.808V454.66H572.084L571.808 454.96C571.808 454.44 571.968 454.032 572.288 453.736C572.616 453.432 573.052 453.28 573.596 453.28C574.26 453.28 574.788 453.504 575.18 453.952C575.58 454.392 575.78 454.996 575.78 455.764V457.624C575.78 458.136 575.688 458.58 575.504 458.956C575.328 459.324 575.076 459.612 574.748 459.82C574.428 460.02 574.044 460.12 573.596 460.12C573.06 460.12 572.628 459.972 572.3 459.676C571.972 459.372 571.808 458.96 571.808 458.44L572.084 458.74H571.784L571.82 460.276V462.16H570.524ZM573.152 458.992C573.576 458.992 573.904 458.872 574.136 458.632C574.376 458.384 574.496 458.028 574.496 457.564V455.836C574.496 455.372 574.376 455.02 574.136 454.78C573.904 454.532 573.576 454.408 573.152 454.408C572.744 454.408 572.42 454.536 572.18 454.792C571.94 455.04 571.82 455.388 571.82 455.836V457.564C571.82 458.012 571.94 458.364 572.18 458.62C572.42 458.868 572.744 458.992 573.152 458.992ZM577.227 460L579.543 456.592L577.371 453.4H578.859L580.023 455.224C580.079 455.32 580.135 455.424 580.191 455.536C580.247 455.64 580.291 455.728 580.323 455.8C580.347 455.728 580.387 455.64 580.443 455.536C580.499 455.424 580.555 455.32 580.611 455.224L581.775 453.4H583.263L581.091 456.604L583.395 460H581.907L580.623 458.02C580.567 457.924 580.511 457.816 580.455 457.696C580.399 457.576 580.355 457.48 580.323 457.408C580.291 457.48 580.243 457.576 580.179 457.696C580.123 457.816 580.063 457.924 579.999 458.02L578.703 460H577.227ZM444.068 476.12C443.524 476.12 443.092 475.972 442.772 475.676C442.452 475.372 442.292 474.96 442.292 474.44L442.568 474.74H442.292V476H441.008V467.24H442.304V469.124L442.268 470.66H442.568L442.292 470.96C442.292 470.44 442.452 470.032 442.772 469.736C443.1 469.432 443.532 469.28 444.068 469.28C444.732 469.28 445.264 469.504 445.664 469.952C446.064 470.4 446.264 471.008 446.264 471.776V473.636C446.264 474.396 446.064 475 445.664 475.448C445.264 475.896 444.732 476.12 444.068 476.12ZM443.624 474.992C444.048 474.992 444.38 474.872 444.62 474.632C444.86 474.384 444.98 474.028 444.98 473.564V471.836C444.98 471.372 444.86 471.02 444.62 470.78C444.38 470.532 444.048 470.408 443.624 470.408C443.216 470.408 442.892 470.536 442.652 470.792C442.42 471.04 442.304 471.388 442.304 471.836V473.564C442.304 474.012 442.42 474.364 442.652 474.62C442.892 474.868 443.216 474.992 443.624 474.992ZM450.795 476.108C450.251 476.108 449.779 476.004 449.379 475.796C448.979 475.588 448.671 475.292 448.455 474.908C448.239 474.524 448.131 474.072 448.131 473.552V471.848C448.131 471.32 448.239 470.868 448.455 470.492C448.671 470.108 448.979 469.812 449.379 469.604C449.779 469.396 450.251 469.292 450.795 469.292C451.339 469.292 451.811 469.396 452.211 469.604C452.611 469.812 452.919 470.108 453.135 470.492C453.351 470.868 453.459 471.32 453.459 471.848V473.552C453.459 474.072 453.351 474.524 453.135 474.908C452.919 475.292 452.611 475.588 452.211 475.796C451.811 476.004 451.339 476.108 450.795 476.108ZM450.795 474.968C451.235 474.968 451.575 474.848 451.815 474.608C452.055 474.36 452.175 474.008 452.175 473.552V471.848C452.175 471.384 452.055 471.032 451.815 470.792C451.575 470.552 451.235 470.432 450.795 470.432C450.363 470.432 450.023 470.552 449.775 470.792C449.535 471.032 449.415 471.384 449.415 471.848V473.552C449.415 474.008 449.535 474.36 449.775 474.608C450.023 474.848 450.363 474.968 450.795 474.968ZM455.615 476V469.4H456.863V470.66H457.175L456.779 471.44C456.779 470.728 456.935 470.192 457.247 469.832C457.559 469.464 458.023 469.28 458.639 469.28C459.343 469.28 459.899 469.5 460.307 469.94C460.723 470.372 460.931 470.968 460.931 471.728V472.172H459.599V471.836C459.599 471.364 459.479 471.004 459.239 470.756C459.007 470.5 458.679 470.372 458.255 470.372C457.831 470.372 457.499 470.5 457.259 470.756C457.027 471.012 456.911 471.372 456.911 471.836V476H455.615ZM464.718 476.12C464.054 476.12 463.522 475.896 463.122 475.448C462.722 475 462.522 474.396 462.522 473.636V471.776C462.522 471.008 462.722 470.4 463.122 469.952C463.522 469.504 464.054 469.28 464.718 469.28C465.262 469.28 465.694 469.432 466.014 469.736C466.334 470.032 466.494 470.44 466.494 470.96L466.218 470.66H466.518L466.482 469.124V467.24H467.778V476H466.494V474.74H466.218L466.494 474.44C466.494 474.96 466.334 475.372 466.014 475.676C465.694 475.972 465.262 476.12 464.718 476.12ZM465.162 474.992C465.57 474.992 465.89 474.868 466.122 474.62C466.362 474.364 466.482 474.012 466.482 473.564V471.836C466.482 471.388 466.362 471.04 466.122 470.792C465.89 470.536 465.57 470.408 465.162 470.408C464.738 470.408 464.406 470.532 464.166 470.78C463.926 471.02 463.806 471.372 463.806 471.836V473.564C463.806 474.028 463.926 474.384 464.166 474.632C464.406 474.872 464.738 474.992 465.162 474.992ZM472.381 476.12C471.845 476.12 471.373 476.016 470.965 475.808C470.565 475.592 470.257 475.292 470.041 474.908C469.825 474.524 469.717 474.076 469.717 473.564V471.836C469.717 471.316 469.825 470.868 470.041 470.492C470.257 470.108 470.565 469.812 470.965 469.604C471.373 469.388 471.845 469.28 472.381 469.28C472.925 469.28 473.397 469.388 473.797 469.604C474.197 469.812 474.505 470.108 474.721 470.492C474.937 470.868 475.045 471.316 475.045 471.836V473.012H470.965V473.564C470.965 474.052 471.085 474.424 471.325 474.68C471.573 474.936 471.929 475.064 472.393 475.064C472.769 475.064 473.073 475 473.305 474.872C473.537 474.736 473.681 474.54 473.737 474.284H475.021C474.925 474.844 474.637 475.292 474.157 475.628C473.677 475.956 473.085 476.12 472.381 476.12ZM473.797 472.232V471.824C473.797 471.344 473.677 470.972 473.437 470.708C473.197 470.444 472.845 470.312 472.381 470.312C471.925 470.312 471.573 470.444 471.325 470.708C471.085 470.972 470.965 471.348 470.965 471.836V472.136L473.893 472.124L473.797 472.232ZM477.201 476V469.4H478.449V470.66H478.761L478.365 471.44C478.365 470.728 478.521 470.192 478.833 469.832C479.145 469.464 479.609 469.28 480.225 469.28C480.929 469.28 481.485 469.5 481.893 469.94C482.309 470.372 482.517 470.968 482.517 471.728V472.172H481.185V471.836C481.185 471.364 481.065 471.004 480.825 470.756C480.593 470.5 480.265 470.372 479.841 470.372C479.417 470.372 479.085 470.5 478.845 470.756C478.613 471.012 478.497 471.372 478.497 471.836V476H477.201ZM484.852 472.628V471.452H488.692V472.628H484.852ZM491.591 476V469.4H492.839V470.66H493.151L492.755 471.44C492.755 470.728 492.911 470.192 493.223 469.832C493.535 469.464 493.999 469.28 494.615 469.28C495.319 469.28 495.875 469.5 496.283 469.94C496.699 470.372 496.907 470.968 496.907 471.728V472.172H495.575V471.836C495.575 471.364 495.455 471.004 495.215 470.756C494.983 470.5 494.655 470.372 494.231 470.372C493.807 470.372 493.475 470.5 493.235 470.756C493.003 471.012 492.887 471.372 492.887 471.836V476H491.591ZM500.503 476.12C499.815 476.12 499.271 475.944 498.871 475.592C498.479 475.232 498.283 474.744 498.283 474.128C498.283 473.504 498.491 473.016 498.907 472.664C499.331 472.304 499.911 472.124 500.646 472.124H502.483V471.512C502.483 471.152 502.371 470.872 502.147 470.672C501.923 470.472 501.607 470.372 501.199 470.372C500.839 470.372 500.539 470.452 500.299 470.612C500.059 470.764 499.919 470.968 499.879 471.224H498.607C498.679 470.632 498.951 470.16 499.423 469.808C499.903 469.456 500.507 469.28 501.235 469.28C502.019 469.28 502.639 469.48 503.095 469.88C503.551 470.272 503.779 470.808 503.779 471.488V476H502.519V474.788H502.303L502.519 474.548C502.519 475.028 502.335 475.412 501.967 475.7C501.599 475.98 501.111 476.12 500.503 476.12ZM500.887 475.124C501.351 475.124 501.731 475.008 502.027 474.776C502.331 474.536 502.483 474.232 502.483 473.864V473H500.671C500.335 473 500.067 473.092 499.867 473.276C499.675 473.46 499.579 473.712 499.579 474.032C499.579 474.368 499.695 474.636 499.927 474.836C500.159 475.028 500.479 475.124 500.887 475.124ZM507.89 476.12C507.226 476.12 506.694 475.896 506.294 475.448C505.894 475 505.694 474.396 505.694 473.636V471.776C505.694 471.008 505.894 470.4 506.294 469.952C506.694 469.504 507.226 469.28 507.89 469.28C508.434 469.28 508.866 469.432 509.186 469.736C509.506 470.032 509.666 470.44 509.666 470.96L509.39 470.66H509.69L509.654 469.124V467.24H510.95V476H509.666V474.74H509.39L509.666 474.44C509.666 474.96 509.506 475.372 509.186 475.676C508.866 475.972 508.434 476.12 507.89 476.12ZM508.334 474.992C508.742 474.992 509.062 474.868 509.294 474.62C509.534 474.364 509.654 474.012 509.654 473.564V471.836C509.654 471.388 509.534 471.04 509.294 470.792C509.062 470.536 508.742 470.408 508.334 470.408C507.91 470.408 507.578 470.532 507.338 470.78C507.098 471.02 506.978 471.372 506.978 471.836V473.564C506.978 474.028 507.098 474.384 507.338 474.632C507.578 474.872 507.91 474.992 508.334 474.992ZM512.925 476V474.824H515.241V470.576H513.225V469.4H516.501V474.824H518.625V476H512.925ZM515.745 468.26C515.465 468.26 515.241 468.188 515.073 468.044C514.905 467.892 514.821 467.692 514.821 467.444C514.821 467.188 514.905 466.988 515.073 466.844C515.241 466.692 515.465 466.616 515.745 466.616C516.025 466.616 516.249 466.692 516.417 466.844C516.585 466.988 516.669 467.188 516.669 467.444C516.669 467.692 516.585 467.892 516.417 468.044C516.249 468.188 516.025 468.26 515.745 468.26ZM522.736 476.12C521.944 476.12 521.312 475.892 520.84 475.436C520.368 474.972 520.132 474.344 520.132 473.552V469.4H521.428V473.552C521.428 474.008 521.544 474.364 521.776 474.62C522.008 474.868 522.328 474.992 522.736 474.992C523.152 474.992 523.476 474.868 523.708 474.62C523.948 474.364 524.068 474.008 524.068 473.552V469.4H525.364V473.552C525.364 474.344 525.124 474.972 524.644 475.436C524.172 475.892 523.536 476.12 522.736 476.12ZM529.716 476.108C529.244 476.108 528.828 476.032 528.468 475.88C528.116 475.728 527.836 475.52 527.628 475.256C527.428 474.984 527.312 474.664 527.28 474.296H528.576C528.608 474.512 528.724 474.688 528.924 474.824C529.124 474.952 529.388 475.016 529.716 475.016H530.232C530.624 475.016 530.92 474.936 531.12 474.776C531.32 474.616 531.42 474.404 531.42 474.14C531.42 473.884 531.328 473.684 531.144 473.54C530.968 473.388 530.704 473.288 530.352 473.24L529.5 473.108C528.796 472.996 528.276 472.796 527.94 472.508C527.612 472.212 527.448 471.776 527.448 471.2C527.448 470.592 527.644 470.124 528.036 469.796C528.436 469.46 529.024 469.292 529.8 469.292H530.256C530.944 469.292 531.492 469.452 531.9 469.772C532.316 470.084 532.552 470.504 532.608 471.032H531.312C531.28 470.84 531.172 470.684 530.988 470.564C530.812 470.444 530.568 470.384 530.256 470.384H529.8C529.424 470.384 529.148 470.456 528.972 470.6C528.804 470.736 528.72 470.94 528.72 471.212C528.72 471.452 528.796 471.632 528.948 471.752C529.1 471.872 529.336 471.956 529.656 472.004L530.532 472.148C531.276 472.252 531.82 472.46 532.164 472.772C532.516 473.076 532.692 473.52 532.692 474.104C532.692 474.736 532.484 475.228 532.068 475.58C531.66 475.932 531.048 476.108 530.232 476.108H529.716ZM537.139 471.188C536.827 471.188 536.571 471.1 536.371 470.924C536.179 470.748 536.083 470.516 536.083 470.228C536.083 469.94 536.179 469.712 536.371 469.544C536.571 469.368 536.827 469.28 537.139 469.28C537.459 469.28 537.715 469.368 537.907 469.544C538.099 469.712 538.195 469.94 538.195 470.228C538.195 470.516 538.099 470.748 537.907 470.924C537.715 471.1 537.459 471.188 537.139 471.188ZM537.139 476.12C536.827 476.12 536.571 476.032 536.371 475.856C536.179 475.68 536.083 475.452 536.083 475.172C536.083 474.876 536.179 474.644 536.371 474.476C536.571 474.3 536.827 474.212 537.139 474.212C537.459 474.212 537.715 474.3 537.907 474.476C538.099 474.644 538.195 474.876 538.195 475.172C538.195 475.452 538.099 475.68 537.907 475.856C537.715 476.032 537.459 476.12 537.139 476.12ZM552.73 476V474.176H548.806V472.232L552.214 467.24H553.654L550.054 472.544V473.012H552.73V470.96H554.014V476H552.73ZM558.725 476.12C558.165 476.12 557.681 476.024 557.273 475.832C556.865 475.64 556.549 475.368 556.325 475.016C556.101 474.656 555.989 474.24 555.989 473.768C555.989 473.24 556.133 472.788 556.421 472.412C556.709 472.036 557.153 471.708 557.753 471.428L559.013 470.84C559.333 470.688 559.581 470.488 559.757 470.24C559.933 469.984 560.021 469.704 560.021 469.4C560.021 469.04 559.905 468.756 559.673 468.548C559.441 468.34 559.125 468.236 558.725 468.236C558.325 468.236 558.005 468.344 557.765 468.56C557.533 468.768 557.417 469.052 557.417 469.412C557.417 469.708 557.505 469.984 557.681 470.24C557.857 470.488 558.097 470.684 558.401 470.828L559.661 471.404C560.293 471.7 560.749 472.04 561.029 472.424C561.317 472.8 561.461 473.248 561.461 473.768C561.461 474.488 561.213 475.06 560.717 475.484C560.229 475.908 559.565 476.12 558.725 476.12ZM558.725 474.992C559.173 474.992 559.529 474.876 559.793 474.644C560.057 474.404 560.189 474.092 560.189 473.708C560.189 473.396 560.101 473.108 559.925 472.844C559.749 472.572 559.505 472.36 559.193 472.208L557.897 471.596C557.305 471.316 556.865 470.996 556.577 470.636C556.289 470.276 556.145 469.844 556.145 469.34C556.145 468.9 556.249 468.512 556.457 468.176C556.673 467.84 556.973 467.58 557.357 467.396C557.741 467.204 558.197 467.108 558.725 467.108C559.253 467.108 559.709 467.204 560.093 467.396C560.477 467.58 560.773 467.84 560.981 468.176C561.189 468.512 561.293 468.9 561.293 469.34C561.293 469.852 561.149 470.284 560.861 470.636C560.581 470.988 560.141 471.312 559.541 471.608L558.233 472.22C557.929 472.364 557.689 472.568 557.513 472.832C557.345 473.096 557.261 473.38 557.261 473.684C557.261 474.076 557.393 474.392 557.657 474.632C557.921 474.872 558.277 474.992 558.725 474.992ZM563.328 478.16V469.4H564.612V470.66H564.888L564.612 470.96C564.612 470.44 564.772 470.032 565.092 469.736C565.42 469.432 565.856 469.28 566.4 469.28C567.064 469.28 567.592 469.504 567.984 469.952C568.384 470.392 568.584 470.996 568.584 471.764V473.624C568.584 474.136 568.492 474.58 568.308 474.956C568.132 475.324 567.88 475.612 567.552 475.82C567.232 476.02 566.848 476.12 566.4 476.12C565.864 476.12 565.432 475.972 565.104 475.676C564.776 475.372 564.612 474.96 564.612 474.44L564.888 474.74H564.588L564.624 476.276V478.16H563.328ZM565.956 474.992C566.38 474.992 566.708 474.872 566.94 474.632C567.18 474.384 567.3 474.028 567.3 473.564V471.836C567.3 471.372 567.18 471.02 566.94 470.78C566.708 470.532 566.38 470.408 565.956 470.408C565.548 470.408 565.224 470.536 564.984 470.792C564.744 471.04 564.624 471.388 564.624 471.836V473.564C564.624 474.012 564.744 474.364 564.984 474.62C565.224 474.868 565.548 474.992 565.956 474.992ZM570.032 476L572.348 472.592L570.176 469.4H571.664L572.828 471.224C572.884 471.32 572.94 471.424 572.996 471.536C573.052 471.64 573.096 471.728 573.128 471.8C573.152 471.728 573.192 471.64 573.248 471.536C573.304 471.424 573.36 471.32 573.416 471.224L574.58 469.4H576.068L573.896 472.604L576.2 476H574.712L573.428 474.02C573.372 473.924 573.316 473.816 573.26 473.696C573.204 473.576 573.16 473.48 573.128 473.408C573.096 473.48 573.048 473.576 572.984 473.696C572.928 473.816 572.868 473.924 572.804 474.02L571.508 476H570.032Z" fill="#444444"/>
<path d="M493.967 440.904C493.647 440.904 493.391 440.812 493.199 440.628C493.007 440.436 492.911 440.18 492.911 439.86C492.911 439.532 493.007 439.272 493.199 439.08C493.391 438.88 493.647 438.78 493.967 438.78C494.295 438.78 494.551 438.88 494.735 439.08C494.927 439.272 495.023 439.532 495.023 439.86C495.023 440.18 494.927 440.436 494.735 440.628C494.551 440.812 494.295 440.904 493.967 440.904ZM501.163 440.904C500.843 440.904 500.587 440.812 500.395 440.628C500.203 440.436 500.107 440.18 500.107 439.86C500.107 439.532 500.203 439.272 500.395 439.08C500.587 438.88 500.843 438.78 501.163 438.78C501.491 438.78 501.747 438.88 501.931 439.08C502.123 439.272 502.219 439.532 502.219 439.86C502.219 440.18 502.123 440.436 501.931 440.628C501.747 440.812 501.491 440.904 501.163 440.904ZM508.358 440.904C508.038 440.904 507.782 440.812 507.59 440.628C507.398 440.436 507.302 440.18 507.302 439.86C507.302 439.532 507.398 439.272 507.59 439.08C507.782 438.88 508.038 438.78 508.358 438.78C508.686 438.78 508.942 438.88 509.126 439.08C509.318 439.272 509.414 439.532 509.414 439.86C509.414 440.18 509.318 440.436 509.126 440.628C508.942 440.812 508.686 440.904 508.358 440.904ZM515.553 440.904C515.233 440.904 514.977 440.812 514.785 440.628C514.593 440.436 514.497 440.18 514.497 439.86C514.497 439.532 514.593 439.272 514.785 439.08C514.977 438.88 515.233 438.78 515.553 438.78C515.881 438.78 516.137 438.88 516.321 439.08C516.513 439.272 516.609 439.532 516.609 439.86C516.609 440.18 516.513 440.436 516.321 440.628C516.137 440.812 515.881 440.904 515.553 440.904ZM522.748 440.904C522.428 440.904 522.172 440.812 521.98 440.628C521.788 440.436 521.692 440.18 521.692 439.86C521.692 439.532 521.788 439.272 521.98 439.08C522.172 438.88 522.428 438.78 522.748 438.78C523.076 438.78 523.332 438.88 523.516 439.08C523.708 439.272 523.804 439.532 523.804 439.86C523.804 440.18 523.708 440.436 523.516 440.628C523.332 440.812 523.076 440.904 522.748 440.904ZM529.944 440.904C529.624 440.904 529.368 440.812 529.176 440.628C528.984 440.436 528.888 440.18 528.888 439.86C528.888 439.532 528.984 439.272 529.176 439.08C529.368 438.88 529.624 438.78 529.944 438.78C530.272 438.78 530.528 438.88 530.712 439.08C530.904 439.272 531 439.532 531 439.86C531 440.18 530.904 440.436 530.712 440.628C530.528 440.812 530.272 440.904 529.944 440.904ZM537.139 440.904C536.819 440.904 536.563 440.812 536.371 440.628C536.179 440.436 536.083 440.18 536.083 439.86C536.083 439.532 536.179 439.272 536.371 439.08C536.563 438.88 536.819 438.78 537.139 438.78C537.467 438.78 537.723 438.88 537.907 439.08C538.099 439.272 538.195 439.532 538.195 439.86C538.195 440.18 538.099 440.436 537.907 440.628C537.723 440.812 537.467 440.904 537.139 440.904ZM450.795 460.12C450.475 460.12 450.219 460.028 450.027 459.844C449.835 459.652 449.739 459.396 449.739 459.076C449.739 458.748 449.835 458.488 450.027 458.296C450.219 458.096 450.475 457.996 450.795 457.996C451.123 457.996 451.379 458.096 451.563 458.296C451.755 458.488 451.851 458.748 451.851 459.076C451.851 459.396 451.755 459.652 451.563 459.844C451.379 460.028 451.123 460.12 450.795 460.12ZM501.163 456.904C500.843 456.904 500.587 456.812 500.395 456.628C500.203 456.436 500.107 456.18 500.107 455.86C500.107 455.532 500.203 455.272 500.395 455.08C500.587 454.88 500.843 454.78 501.163 454.78C501.491 454.78 501.747 454.88 501.931 455.08C502.123 455.272 502.219 455.532 502.219 455.86C502.219 456.18 502.123 456.436 501.931 456.628C501.747 456.812 501.491 456.904 501.163 456.904ZM508.358 456.904C508.038 456.904 507.782 456.812 507.59 456.628C507.398 456.436 507.302 456.18 507.302 455.86C507.302 455.532 507.398 455.272 507.59 455.08C507.782 454.88 508.038 454.78 508.358 454.78C508.686 454.78 508.942 454.88 509.126 455.08C509.318 455.272 509.414 455.532 509.414 455.86C509.414 456.18 509.318 456.436 509.126 456.628C508.942 456.812 508.686 456.904 508.358 456.904ZM515.553 456.904C515.233 456.904 514.977 456.812 514.785 456.628C514.593 456.436 514.497 456.18 514.497 455.86C514.497 455.532 514.593 455.272 514.785 455.08C514.977 454.88 515.233 454.78 515.553 454.78C515.881 454.78 516.137 454.88 516.321 455.08C516.513 455.272 516.609 455.532 516.609 455.86C516.609 456.18 516.513 456.436 516.321 456.628C516.137 456.812 515.881 456.904 515.553 456.904ZM522.748 456.904C522.428 456.904 522.172 456.812 521.98 456.628C521.788 456.436 521.692 456.18 521.692 455.86C521.692 455.532 521.788 455.272 521.98 455.08C522.172 454.88 522.428 454.78 522.748 454.78C523.076 454.78 523.332 454.88 523.516 455.08C523.708 455.272 523.804 455.532 523.804 455.86C523.804 456.18 523.708 456.436 523.516 456.628C523.332 456.812 523.076 456.904 522.748 456.904ZM529.944 456.904C529.624 456.904 529.368 456.812 529.176 456.628C528.984 456.436 528.888 456.18 528.888 455.86C528.888 455.532 528.984 455.272 529.176 455.08C529.368 454.88 529.624 454.78 529.944 454.78C530.272 454.78 530.528 454.88 530.712 455.08C530.904 455.272 531 455.532 531 455.86C531 456.18 530.904 456.436 530.712 456.628C530.528 456.812 530.272 456.904 529.944 456.904ZM537.139 456.904C536.819 456.904 536.563 456.812 536.371 456.628C536.179 456.436 536.083 456.18 536.083 455.86C536.083 455.532 536.179 455.272 536.371 455.08C536.563 454.88 536.819 454.78 537.139 454.78C537.467 454.78 537.723 454.88 537.907 455.08C538.099 455.272 538.195 455.532 538.195 455.86C538.195 456.18 538.099 456.436 537.907 456.628C537.723 456.812 537.467 456.904 537.139 456.904Z" fill="#AAAAAA"/>
</svg>
