<?xml version="1.0" encoding="UTF-8" standalone="no"?>
<svg width="236px" height="200px" viewBox="0 0 236 200" version="1.1"
  xmlns="http://www.w3.org/2000/svg"
  xmlns:xlink="http://www.w3.org/1999/xlink">
  <!-- Generator: Sketch 3.7.2 (28276) - http://www.bohemiancoding.com/sketch -->
  <title>open-source</title>
  <desc>Created with Sketch.</desc>
  <defs></defs>
  <g id="Page-4" stroke="none" stroke-width="1" fill="none" fill-rule="evenodd">
    <g id="Open-Source" transform="translate(0.000000, -18.000000)">
      <g id="Main" transform="translate(68.000000, 48.000000)" stroke-width="2" stroke-linecap="round" stroke-linejoin="round">
        <path d="M60,20 C60,27.3 64.1,33.8 70,37.2 L70,48.9956055 C70,49.5503173 69.6858478,50.3141522 69.2881894,50.7118106 L50,70 L30.7118106,50.7118106 C30.3186885,50.3186885 30,49.5444412 30,48.9956055 L30,37.2 C35.9,33.8 40,27.4 40,20 C40,8.9 31.1,0 20,0 C8.9,0 0,8.9 0,20 C0,27.3 4.1,33.8 10,37.2 L10,53.9919942 C10,54.5487004 10.3166156,55.3166156 10.7119875,55.7119875 L39.2880125,84.2880125 C39.6812324,84.6812324 40,85.4400024 40,86.0080058 L40,102.8 C34.1,106.2 30,112.6 30,120 C30,131.1 38.9,140 50,140 C61.1,140 70,131.1 70,120 C70,112.7 65.9,106.2 60,102.8 L60,86.0080058 C60,85.4512996 60.3166156,84.6833844 60.7119875,84.2880125 L89.2880125,55.7119875 C89.6812324,55.3187676 90,54.5599976 90,53.9919942 L90,37.2 C95.9,33.8 100,27.4 100,20 C100,8.9 91.1,0 80,0 C68.9,0 60,8.9 60,20 Z" id="main" stroke="#3B8594" fill-opacity="0.75999999" fill="#B9E1EA"></path>
        <path d="M80,28 C75.6,28 72,24.3333333 72,20 C72,15.6666667 75.6666667,12 80,12 C84.3333333,12 88,15.6666667 88,20 C88,24.3333333 84.3333333,28 80,28 L80,28 Z" id="Path" stroke="#4EA3B3" fill="#FFFFFF"></path>
        <path d="M50,128 C45.6,128 42,124.333333 42,120 C42,115.666667 45.6666667,112 50,112 C54.3333333,112 58,115.666667 58,120 C58,124.333333 54.3333333,128 50,128 L50,128 Z" id="Path" stroke="#4EA3B3" fill="#FFFFFF"></path>
        <path d="M20,28 C15.6,28 12,24.3333333 12,20 C12,15.6666667 15.6666667,12 20,12 C24.3333333,12 28,15.6666667 28,20 C28,24.3333333 24.3333333,28 20,28 L20,28 Z" id="Path" stroke="#4EA3B3" fill="#FFFFFF"></path>
      </g>
    </g>
  </g>
</svg>
