<svg xmlns="http://www.w3.org/2000/svg" viewBox="0 0 880 420" font-family="-apple-system, BlinkMacSystemFont, 'Segoe UI', Helvetica, Arial, sans-serif" role="img" aria-label="The cold-marking trap. A profile trained only on browser benchmarks made browser-style code faster (Speedometer up 13%) but made Node.js Buffer operations 63% slower than stock, because the training never ran Node so the profile marked all of it cold. The enriched training profile, which adds Node.js, contextBridge and IPC, real-TLS networking, and ASAR module loading, keeps the browser wins and recovers Node fully.">
  <defs>
    <linearGradient id="bg" x1="0" y1="0" x2="1" y2="1"><stop offset="0" stop-color="#161b22"/><stop offset="1" stop-color="#0d1117"/></linearGradient>
  </defs>
  <rect width="880" height="420" rx="16" fill="url(#bg)"/>
  <rect x="0.5" y="0.5" width="879" height="419" rx="16" fill="none" stroke="#30363d"/>

  <text x="32" y="44" fill="#e6edf3" font-size="18" font-weight="700">PGO is symmetric: what you don't train gets pessimized</text>
  <text x="32" y="68" fill="#8b949e" font-size="13">The same optimized build, measured with two different training profiles</text>

  <line x1="440" y1="92" x2="440" y2="356" stroke="#30363d"/>

  <!-- ============ LEFT: v1 benchmark-only ============ -->
  <text x="32" y="112" fill="#f0883e" font-size="13" font-weight="700" letter-spacing="0.06em">TRAINED ON BROWSER BENCHMARKS ONLY</text>

  <!-- what it ran -->
  <text x="32" y="140" fill="#8b949e" font-size="12">Training ran:</text>
  <rect x="120" y="126" width="110" height="22" rx="11" fill="#21262d" stroke="#30363d"/>
  <text x="175" y="141" fill="#c9d1d9" font-size="11.5" text-anchor="middle">Speedometer</text>
  <rect x="236" y="126" width="80" height="22" rx="11" fill="#21262d" stroke="#30363d"/>
  <text x="276" y="141" fill="#c9d1d9" font-size="11.5" text-anchor="middle">DOM, CSS</text>

  <!-- results -->
  <text x="32" y="186" fill="#c9d1d9" font-size="13" font-weight="600">Browser-style code</text>
  <rect x="32" y="196" width="180" height="14" rx="7" fill="#2ea043"/>
  <text x="220" y="208" fill="#56d364" font-size="12.5" font-weight="700">+13% &#10003;</text>

  <text x="32" y="248" fill="#c9d1d9" font-size="13" font-weight="600">Node.js Buffer operations</text>
  <rect x="32" y="258" width="330" height="14" rx="7" fill="#21262d"/>
  <rect x="32" y="258" width="122" height="14" rx="7" fill="#da3633"/>
  <text x="362" y="270" fill="#ff7b72" font-size="12.5" font-weight="700" text-anchor="end">&#8722;63% &#10007;</text>

  <rect x="32" y="296" width="376" height="60" rx="8" fill="#3d1d1d" stroke="#da3633"/>
  <text x="50" y="321" fill="#ff7b72" font-size="12.5" font-weight="700">Never ran Node, so the profile marked</text>
  <text x="50" y="340" fill="#ff7b72" font-size="12.5" font-weight="700">all of Node cold. Worse than no profile.</text>

  <!-- ============ RIGHT: enriched training ============ -->
  <text x="472" y="112" fill="#3fb950" font-size="13" font-weight="700" letter-spacing="0.06em">TRAINED ON HOW APPS USE ELECTRON</text>

  <text x="472" y="140" fill="#8b949e" font-size="12">Training ran:</text>
  <rect x="560" y="126" width="110" height="22" rx="11" fill="#21262d" stroke="#30363d"/>
  <text x="615" y="141" fill="#c9d1d9" font-size="11.5" text-anchor="middle">Speedometer</text>
  <rect x="676" y="126" width="62" height="22" rx="11" fill="#193a2e" stroke="#3fb950"/>
  <text x="707" y="141" fill="#56d364" font-size="11.5" text-anchor="middle">Node.js</text>
  <rect x="744" y="126" width="104" height="22" rx="11" fill="#193a2e" stroke="#3fb950"/>
  <text x="796" y="141" fill="#56d364" font-size="11.5" text-anchor="middle">contextBridge</text>
  <rect x="560" y="152" width="56" height="22" rx="11" fill="#193a2e" stroke="#3fb950"/>
  <text x="588" y="167" fill="#56d364" font-size="11.5" text-anchor="middle">IPC</text>
  <rect x="622" y="152" width="56" height="22" rx="11" fill="#193a2e" stroke="#3fb950"/>
  <text x="650" y="167" fill="#56d364" font-size="11.5" text-anchor="middle">TLS</text>
  <rect x="684" y="152" width="120" height="22" rx="11" fill="#193a2e" stroke="#3fb950"/>
  <text x="744" y="167" fill="#56d364" font-size="11.5" text-anchor="middle">ASAR + modules</text>

  <!-- results -->
  <text x="472" y="210" fill="#c9d1d9" font-size="13" font-weight="600">Browser-style code</text>
  <rect x="472" y="220" width="180" height="14" rx="7" fill="#2ea043"/>
  <text x="660" y="232" fill="#56d364" font-size="12.5" font-weight="700">+13% kept &#10003;</text>

  <text x="472" y="262" fill="#c9d1d9" font-size="13" font-weight="600">Node.js Buffer operations</text>
  <rect x="472" y="272" width="186" height="14" rx="7" fill="#2ea043"/>
  <text x="666" y="284" fill="#56d364" font-size="12.5" font-weight="700">recovered &#10003;</text>

  <rect x="472" y="296" width="376" height="60" rx="8" fill="#193a2e" stroke="#3fb950"/>
  <text x="490" y="321" fill="#56d364" font-size="12.5" font-weight="700">Training breadth is the whole game:</text>
  <text x="490" y="340" fill="#56d364" font-size="12.5" font-weight="700">profile what apps actually do, not benchmarks.</text>

  <text x="32" y="396" fill="#6e7681" font-size="11">Buffer regression measured on macOS arm64; Speedometer on Linux x64. Both profiles applied to identical source.</text>
</svg>
