<svg xmlns="http://www.w3.org/2000/svg" viewBox="0 0 880 380" font-family="-apple-system, BlinkMacSystemFont, 'Segoe UI', Helvetica, Arial, sans-serif" role="img" aria-label="Why a synchronous IPC request that should take 2 ms can take 80 ms. Before: the renderer sends a synchronous request and blocks; the main process is busy with other startup work and keeps yielding, so the cheap reply isn't scheduled until about 78 ms, and only then does the renderer resume. After: the main process pushes the preload bundle one-way during navigation setup, the renderer never blocks, and it resumes at about 22 ms.">
  <defs>
    <linearGradient id="bg" x1="0" y1="0" x2="1" y2="1"><stop offset="0" stop-color="#161b22"/><stop offset="1" stop-color="#0d1117"/></linearGradient>
  </defs>
  <rect width="880" height="380" rx="16" fill="url(#bg)"/>
  <rect x="0.5" y="0.5" width="879" height="379" rx="16" fill="none" stroke="#30363d"/>

  <text x="32" y="44" fill="#e6edf3" font-size="18" font-weight="700">Why a 2&#8201;ms request takes 80&#8201;ms</text>

  <!-- ===== BEFORE ===== -->
  <text x="32" y="78" fill="#f0883e" font-size="13" font-weight="700" letter-spacing="0.08em">BEFORE · SYNCHRONOUS PULL</text>

  <!-- row labels -->
  <text x="32" y="113" fill="#8b949e" font-size="12.5">main process</text>
  <text x="32" y="155" fill="#8b949e" font-size="12.5">renderer</text>

  <!-- main process lane: busy chunks of other startup work, reply lands late -->
  <rect x="150" y="98"  width="120" height="20" rx="3" fill="#3d4450"/>
  <rect x="276" y="98"  width="120" height="20" rx="3" fill="#3d4450"/>
  <rect x="402" y="98"  width="110" height="20" rx="3" fill="#3d4450"/>
  <rect x="518" y="98"  width="100" height="20" rx="3" fill="#3d4450"/>
  <text x="300" y="91" fill="#6e7681" font-size="11">other startup work (keeps the thread busy)</text>
  <rect x="624" y="98"  width="22"  height="20" rx="3" fill="#2dd4bf"/>
  <text x="652" y="113" fill="#9feaf9" font-size="11" font-weight="600">reply (~2&#8201;ms of actual work)</text>

  <!-- renderer lane: blocked the whole time -->
  <rect x="150" y="140" width="474" height="20" rx="3" fill="#da3633"/>
  <text x="158" y="155" fill="#ffffff" font-size="11.5" font-weight="600">blocked &#8212; main thread frozen, waiting</text>
  <rect x="624" y="140" width="216" height="20" rx="3" fill="#21262d"/>
  <text x="632" y="155" fill="#8b949e" font-size="11.5">resume at ~80&#8201;ms</text>

  <!-- request / reply arrows -->
  <path d="M 152 140 L 152 120" stroke="#8b949e" stroke-width="1.5" marker-end="url(#arrUp)"/>
  <path d="M 635 118 L 635 140" stroke="#9feaf9" stroke-width="1.5" marker-end="url(#arrDn)"/>
  <text x="158" y="134" fill="#8b949e" font-size="10.5">sync request</text>

  <text x="150" y="186" fill="#6e7681" font-size="11.5">The reply is cheap, but it only runs once the main thread finishes everything ahead of it.</text>

  <!-- ===== AFTER ===== -->
  <text x="32" y="236" fill="#3fb950" font-size="13" font-weight="700" letter-spacing="0.08em">AFTER · ONE-WAY PUSH</text>

  <text x="32" y="271" fill="#8b949e" font-size="12.5">main process</text>
  <text x="32" y="313" fill="#8b949e" font-size="12.5">renderer</text>

  <!-- main pushes during navigation setup, early -->
  <rect x="150" y="256" width="120" height="20" rx="3" fill="#2dd4bf"/>
  <text x="158" y="271" fill="#0d1117" font-size="11" font-weight="700">push bundle</text>
  <text x="278" y="271" fill="#6e7681" font-size="11">sent during navigation setup, before the renderer needs it</text>

  <!-- renderer never blocks -->
  <rect x="150" y="298" width="120" height="20" rx="3" fill="#21262d"/>
  <rect x="276" y="298" width="80" height="20" rx="3" fill="#3fb950"/>
  <text x="284" y="313" fill="#0d1117" font-size="11" font-weight="700">resume</text>
  <text x="364" y="313" fill="#56d364" font-size="11.5" font-weight="600">~22&#8201;ms, flat regardless of main-process load</text>

  <!-- push arrow -->
  <path d="M 210 276 L 210 298" stroke="#2dd4bf" stroke-width="1.5" marker-end="url(#arrDn2)"/>

  <text x="150" y="350" fill="#6e7681" font-size="11.5">No round-trip, no waiting on a busy thread &#8212; the data is already there when the renderer starts.</text>

  <defs>
    <marker id="arrUp" markerWidth="7" markerHeight="7" refX="3.5" refY="6" orient="auto"><path d="M0,6 L3.5,0 L7,6" fill="#8b949e"/></marker>
    <marker id="arrDn" markerWidth="7" markerHeight="7" refX="3.5" refY="1" orient="auto"><path d="M0,1 L3.5,7 L7,1" fill="#9feaf9"/></marker>
    <marker id="arrDn2" markerWidth="7" markerHeight="7" refX="3.5" refY="1" orient="auto"><path d="M0,1 L3.5,7 L7,1" fill="#2dd4bf"/></marker>
  </defs>
</svg>
