<svg width="190" height="190" viewBox="0 0 190 190" fill="none"
  xmlns="http://www.w3.org/2000/svg">
  <rect width="190" height="190"/>
  <path d="M189.611 84.2622H134.166L182.184 56.539L171.639 38.2692L123.621 65.9923L151.338 17.9781L133.068 7.42678L105.351 55.4409V0H84.2598V55.4462L56.5322 7.42678L38.2681 17.9728L65.9904 65.987L17.9723 38.2692L7.42658 56.5337L55.4447 84.2569H0V105.349H55.4394L7.42658 133.072L17.9723 151.342L65.9851 123.624L38.2628 171.638L56.5322 182.184L84.2545 134.165V189.611H105.346V134.17L133.063 182.184L151.332 171.638L123.61 123.619L171.628 151.342L182.174 133.072L134.161 105.354H189.6V84.2622H189.611ZM94.8055 123.491C78.9021 123.491 66.0116 110.601 66.0116 94.6968C66.0116 78.7929 78.9021 65.9021 94.8055 65.9021C110.709 65.9021 123.599 78.7929 123.599 94.6968C123.599 110.601 110.709 123.491 94.8055 123.491Z" fill="#625DF5"/>
</svg>
