<svg width="192" height="192" viewBox="0 0 192 192" fill="none"
  xmlns="http://www.w3.org/2000/svg">
  <g clip-path="url(#clip0)">
    <path d="M137.934 76.3169C127.821 31.7004 106.716 19.8196 101.36 11.4214C98.4493 6.85286 95.4813 -0.0900269 95.4813 -0.0900269C95.1911 3.86729 94.6766 6.37358 91.2997 9.38114C84.5371 15.4094 55.7982 38.8279 53.3843 89.5255C51.133 136.793 88.1207 165.946 93.0365 168.958C96.7916 170.804 101.391 168.993 103.589 167.3C121.415 155.059 145.801 122.42 137.912 76.3169" fill="#10AA50"/>
    <path d="M97.0115 143.78C96.0837 155.485 95.4154 162.296 93.0542 168.971C93.0542 168.971 94.6107 180.108 95.6924 191.91H99.5486C100.469 183.598 101.874 175.347 103.757 167.199C98.7615 164.75 97.2006 154.047 97.0115 143.78Z" fill="#B8C4C2"/>
    <path d="M103.752 167.208C98.7042 164.877 97.2444 153.959 97.0201 143.78C98.2638 126.998 98.6234 110.162 98.0974 93.3421C97.8336 84.5173 98.2293 11.5928 95.9253 0.916901C96.8575 3.00548 99.1087 7.91255 101.36 11.417C106.738 19.8197 127.826 31.7004 137.93 76.3213C145.805 122.305 121.564 154.887 103.752 167.208Z" fill="#12924F"/>
  </g>
  <defs>
    <clipPath id="clip0">
      <rect width="192" height="192" fill="white"/>
    </clipPath>
  </defs>
</svg>
