<svg id="Layer_1" data-name="Layer 1"
  xmlns="http://www.w3.org/2000/svg" width="800" height="800" viewBox="0 0 800 800">
  <defs>
    <style>.cls-1{fill:none;}</style>
  </defs>
  <title>splice-logo-freelogovectors.net_</title>
  <path d="M403.51,39c45.67-11.74,97.2,11.81,118.07,54.14,20.62,39.19,12.79,90.79-18.58,122.08Q406.21,312.3,309.23,409.12C296.15,423,292,444.5,299.08,462.27c3.45,11.1,13.18,18.15,20.47,26.61,2.72,3.63,2.86,11.34-2.78,12.16-63.8,9.44-130.27-26.72-158.89-84.17-30.17-57.38-19.7-132.8,25.38-179.54q85.38-85.64,171-171.08A105,105,0,0,1,403.51,39m77.82,243.12c70.49-13,145,33.34,168.4,100.59,20,54.31,8,119.65-32.5,161.56q-96.9,97-193.92,193.88c-38.94,35.78-105.13,34.19-142.28-3.45-34.68-32-42.15-88.36-17.94-128.64,7.65-14.17,20.2-24.43,31.23-35.74C359.45,505,424.9,440,489.86,374.54c19.49-19.52,19.52-54.52-1.38-73-4.47-5-15.05-12.79-7.15-19.38Z"/>
  <rect class="cls-1" width="800" height="800"/>
</svg>
