<svg width="226" height="226" viewBox="0 0 226 226" fill="none"
  xmlns="http://www.w3.org/2000/svg">
  <path d="M12.7143 14.9978C22.7428 4.33934 32.4075 0.65686 81.1574 0.65686C134.894 0.65686 115.914 0.65686 140.56 0.65686C176.468 0.65686 202.868 4.4162 213.237 14.9594C223.606 25.5026 225.343 51.1657 225.343 94.8054C225.343 147.938 225.343 117.64 225.343 155.757C225.343 182.909 222.216 202.207 212.237 212.587C202.258 222.967 174.75 225.343 136.205 225.343C103.941 225.343 92.5176 225.343 83.725 225.343C50.906 225.343 24.6041 222.922 14.1916 213.428C3.77921 203.935 0.65686 176.062 0.65686 149.73C0.65686 122.003 0.65686 148.317 0.65686 94.8054C0.65686 54.5505 2.68571 25.6564 12.7143 14.9978Z" fill="url(#paint0_linear)"/>
  <path opacity="0.1" fill-rule="evenodd" clip-rule="evenodd" d="M204.362 9.05646L32.3834 221.432C24.3749 219.612 18.1406 217.029 14.1916 213.428C3.77921 203.935 0.65686 176.062 0.65686 149.731V94.8055C0.65686 54.5507 2.68571 25.6565 12.7143 14.998C22.7428 4.33946 32.4075 0.656982 81.1574 0.656982H140.56C168.727 0.656982 191.044 2.97018 204.362 9.05646Z" fill="url(#paint1_linear)"/>
  <g style="mix-blend-mode:overlay" opacity="0.2">
    <path fill-rule="evenodd" clip-rule="evenodd" d="M43.7175 185.548L72.0523 151.43C85.3523 162.128 99.1218 167.646 113 167.646C128.035 167.646 134.396 162.73 134.396 154.346C134.396 145.383 124.854 142.491 108.952 136.13L85.5327 126.3C65.2936 118.204 47.6567 101.146 47.6567 73.9675C47.6567 41.874 76.5697 15.5632 117.626 15.5632C139.022 15.5632 159.73 25.6588 177.078 42.7175L153.213 70.9436C140.491 61.9805 131.504 58.3544 117.626 58.3544C105.483 58.3544 97.9653 62.6914 97.9653 71.0762C97.9653 80.0392 108.663 83.2196 125.722 89.8696L148.563 98.8327C171.983 108.085 185.283 124.276 185.283 150.298C185.283 182.102 158.683 210.437 111.844 210.437C88.1349 210.437 63.9566 203.763 43.7175 185.548Z" fill="white"/>
  </g>
  <g style="mix-blend-mode:overlay" opacity="0.2">
    <path fill-rule="evenodd" clip-rule="evenodd" d="M55.1778 171.439L78.7523 143.272C89.7279 151.789 102.482 157.668 113.776 157.471C126.012 157.258 131.118 153.167 130.999 146.344C130.872 139.049 123.066 136.832 110.034 131.881L90.8357 124.214C74.2498 117.913 59.6544 104.281 59.2683 82.1631C58.8124 56.045 81.9684 34.2222 115.381 33.639C132.793 33.3351 152.202 41.5866 166.562 55.2228L146.77 78.9881C136.29 71.8746 127.283 68.2659 115.989 68.4631C106.106 68.6356 100.05 72.2718 100.169 79.0954C100.296 86.3897 109.048 88.826 123.025 93.9955L141.74 100.965C160.931 108.162 171.985 121.15 172.354 142.327C172.806 168.209 151.561 191.646 113.443 192.312C94.1485 192.649 71.9073 185.976 55.1778 171.439Z" fill="white"/>
  </g>
  <path fill-rule="evenodd" clip-rule="evenodd" d="M69.5132 153.986L86.6268 134.097C94.3839 140.562 104.226 145.182 112.436 145.325C121.33 145.481 125.143 142.639 125.23 137.679C125.322 132.377 119.708 130.568 110.367 126.641L96.6145 120.584C84.7257 115.586 74.4688 105.313 74.7494 89.2357C75.0808 70.251 92.4559 54.9854 116.743 55.4094C129.399 55.6303 143.34 60.664 153.426 70.9342L138.395 89.1491C130.962 83.7157 124.511 80.8657 116.301 80.7224C109.117 80.597 104.626 83.0849 104.539 88.0449C104.447 93.3469 110.742 95.3388 120.764 99.4487L134.184 104.987C147.942 110.701 155.642 120.417 155.373 135.81C155.045 154.623 139.017 171.11 111.31 170.627C97.2851 170.382 81.2975 164.97 69.5132 153.986Z" fill="white"/>
  <defs>
    <linearGradient id="paint0_linear" x1="113" y1="0.65686" x2="113" y2="225.343" gradientUnits="userSpaceOnUse">
      <stop stop-color="#203345"/>
      <stop offset="1" stop-color="#1A2530"/>
    </linearGradient>
    <linearGradient id="paint1_linear" x1="155.384" y1="-98.0813" x2="-60.1199" y2="168.044" gradientUnits="userSpaceOnUse">
      <stop stop-color="#A2D0FF"/>
      <stop offset="1" stop-color="#1A2632"/>
    </linearGradient>
  </defs>
</svg>
