<svg width="907" height="174" viewBox="0 0 907 174" fill="none" xmlns="http://www.w3.org/2000/svg">
<g clip-path="url(#clip0_317_39304)">
<path fill-rule="evenodd" clip-rule="evenodd" d="M173.694 86.7961C173.694 38.8605 134.811 0 86.8469 0C38.8833 0 0 38.8605 0 86.7961C0 134.734 38.8833 173.592 86.8469 173.592C134.811 173.592 173.694 134.734 173.694 86.7961ZM71.0397 38.576C70.3569 39.9152 70.3569 41.6684 70.3569 45.1747V65.0472C70.3569 65.9231 70.3569 66.361 70.4676 66.7659C70.5656 67.1246 70.7268 67.463 70.9436 67.7652C71.1883 68.1063 71.5284 68.3824 72.2086 68.9347L77.2384 73.0182C78.0582 73.6838 78.4681 74.0166 78.6169 74.4173C78.7474 74.7687 78.7474 75.1553 78.6169 75.5067C78.4681 75.9073 78.0582 76.2401 77.2384 76.9057L72.2086 80.9893C71.5284 81.5415 71.1883 81.8176 70.9436 82.1587C70.7268 82.4609 70.5656 82.7993 70.4676 83.1581C70.3569 83.563 70.3569 84.0009 70.3569 84.8768V128.417C70.3569 131.923 70.3569 133.676 71.0397 135.015C71.6403 136.194 72.5986 137.151 73.7774 137.752C75.1174 138.434 76.8716 138.434 80.38 138.434H93.3138C96.8222 138.434 98.5763 138.434 99.9164 137.752C101.095 137.151 102.053 136.194 102.654 135.015C103.337 133.676 103.337 131.923 103.337 128.417V108.544C103.337 107.668 103.337 107.23 103.226 106.826C103.128 106.467 102.967 106.128 102.75 105.826C102.505 105.485 102.165 105.209 101.485 104.657L96.4554 100.573C95.6356 99.9077 95.2256 99.5748 95.0768 99.1741C94.9463 98.8227 94.9463 98.4362 95.0768 98.0848C95.2256 97.6841 95.6355 97.3513 96.4554 96.6857L101.485 92.6022C102.165 92.05 102.505 91.7738 102.75 91.4327C102.967 91.1305 103.128 90.7921 103.226 90.4334C103.337 90.0285 103.337 89.5906 103.337 88.7147V45.1747C103.337 41.6684 103.337 39.9152 102.654 38.576C102.053 37.398 101.095 36.4402 99.9164 35.8399C98.5763 35.1576 96.8222 35.1576 93.3138 35.1576H80.3799C76.8716 35.1576 75.1174 35.1576 73.7774 35.8399C72.5986 36.4402 71.6403 37.398 71.0397 38.576Z" fill="#303136"/>
<path d="M243.412 138.719C244.273 138.719 244.97 138.022 244.97 137.162V35.2064C244.97 34.3465 244.273 33.6494 243.412 33.6494H228.378C227.821 33.6494 227.311 33.9507 227.005 34.4159C223.558 39.6544 217.149 42.2929 208.364 42.5676C207.504 42.5944 206.805 43.2886 206.805 44.1486V59.3978C206.805 60.2577 207.502 60.9548 208.363 60.9548H220.513C221.373 60.9548 222.071 61.6519 222.071 62.5119V137.162C222.071 138.022 222.768 138.719 223.629 138.719H243.412Z" fill="#303136"/>
<path d="M303.433 54.7273C311.543 54.7273 318.063 59.0387 318.063 69.897C318.063 80.4359 311.543 85.0666 303.433 85.0666H285.781V54.7273H303.433ZM303.433 104.707C327.286 104.707 341.121 90.1764 341.121 69.2582C341.121 49.4578 327.286 34.9269 303.433 34.9269H264.599C263.738 34.9269 263.041 35.624 263.041 36.4839V137.162C263.041 138.022 263.738 138.719 264.599 138.719H284.223C285.084 138.719 285.781 138.022 285.781 137.162V106.264C285.781 105.404 286.479 104.707 287.339 104.707H303.433Z" fill="#303136"/>
<path d="M376.392 124.029C369.713 124.029 365.579 120.995 365.579 115.566C365.579 110.775 368.441 107.582 375.279 107.582H393.885V109.178C393.885 118.44 385.934 124.029 376.392 124.029ZM395.634 137.162C395.634 138.022 396.332 138.719 397.192 138.719H414.272C415.133 138.719 415.83 138.022 415.83 137.162V92.0926C415.83 70.376 403.585 57.7612 381.481 57.7612C365.069 57.7612 352.504 66.5256 347.352 80.6157C347.043 81.4619 347.557 82.3744 348.432 82.589L365.641 86.8068C366.418 86.9974 367.208 86.566 367.511 85.8254C370.124 79.4333 374.476 75.6455 381.481 75.6455C388.796 75.6455 393.885 80.4359 393.885 89.0586V90.1764C393.885 92.5716 393.09 93.5297 390.227 93.5297H370.349C353.811 93.5297 343.792 102.312 343.792 116.204C343.792 131.055 355.242 140.636 371.145 140.636C379.146 140.636 386.834 138.006 392.252 132.15C393.317 130.999 395.634 131.701 395.634 133.269V137.162Z" fill="#303136"/>
<path d="M458.141 124.667C450.413 124.667 444.768 121.46 441.986 115.566C441.648 114.851 440.864 114.435 440.096 114.629L424.012 118.701C423.185 118.91 422.675 119.748 422.921 120.565C426.993 134.089 440.614 140.636 457.345 140.636C478.814 140.636 491.058 129.618 491.058 114.608C491.058 85.5457 445.101 95.4459 445.101 81.0746C445.101 76.2842 449.076 73.2502 456.232 73.2502C463.354 73.2502 468.123 77.1426 470.409 83.1114C470.692 83.8518 471.452 84.3163 472.231 84.1688L488.648 81.0611C489.526 80.8949 490.087 80.0241 489.834 79.1679C486.068 66.4534 475.485 57.7612 456.391 57.7612C435.4 57.7612 424.268 68.9389 424.268 82.9908C424.268 113.011 470.385 104.069 470.385 116.524C470.385 121.474 466.251 124.667 458.141 124.667Z" fill="#303136"/>
<path d="M529.583 124.667C521.855 124.667 516.211 121.46 513.428 115.566C513.09 114.851 512.306 114.435 511.539 114.629L495.454 118.701C494.627 118.91 494.118 119.748 494.364 120.565C498.436 134.089 512.056 140.636 528.788 140.636C550.256 140.636 562.501 129.618 562.501 114.608C562.501 85.5457 516.543 95.4459 516.543 81.0746C516.543 76.2842 520.519 73.2502 527.675 73.2502C534.797 73.2502 539.566 77.1426 541.851 83.1114C542.135 83.8518 542.894 84.3163 543.674 84.1688L560.09 81.0611C560.968 80.8949 561.53 80.0241 561.276 79.1679C557.511 66.4534 546.927 57.7612 527.834 57.7612C506.843 57.7612 495.711 68.9389 495.711 82.9908C495.711 113.011 541.828 104.069 541.828 116.524C541.828 121.474 537.693 124.667 529.583 124.667Z" fill="#303136"/>
<path d="M582.604 137.53C582.774 138.228 583.399 138.719 584.118 138.719H608.852C609.575 138.719 610.203 138.222 610.369 137.519L622.968 83.9488L635.566 137.519C635.731 138.222 636.36 138.719 637.083 138.719H662.615C663.332 138.719 663.957 138.23 664.128 137.533L682.764 61.6054C683.005 60.6243 682.262 59.6774 681.251 59.6774H663.674C662.935 59.6774 662.298 60.196 662.148 60.9191L649.683 121.154L634.24 60.8484C634.064 60.1593 633.442 59.6774 632.731 59.6774H613.067C612.345 59.6774 611.718 60.1726 611.551 60.8741L597.206 121.154L584.897 60.9229C584.749 60.198 584.111 59.6774 583.371 59.6774H565.634C564.625 59.6774 563.882 60.6222 564.12 61.6025L582.604 137.53Z" fill="#303136"/>
<path d="M724.779 140.636C748.632 140.636 765.012 122.113 765.012 99.2782C765.012 76.2842 748.632 57.7612 724.779 57.7612C701.084 57.7612 684.546 76.2842 684.546 99.2782C684.546 122.113 701.084 140.636 724.779 140.636ZM724.779 121.634C714.919 121.634 707.286 113.33 707.286 99.2782C707.286 85.2263 714.919 76.7632 724.779 76.7632C734.638 76.7632 742.43 85.2263 742.43 99.2782C742.43 113.33 734.638 121.634 724.779 121.634Z" fill="#303136"/>
<path d="M796.378 96.883C796.378 83.3101 803.216 80.1165 813.712 80.1165C815.723 80.1165 817.934 80.3162 820.029 80.7156C820.917 80.8848 821.797 80.3181 821.954 79.4285L825.283 60.6239C825.4 59.9634 825.084 59.2937 824.467 59.0308C822.554 58.2164 820.188 57.7612 817.369 57.7612C806.714 57.7612 798.445 63.9888 794.47 76.6035V61.2344C794.47 60.3745 793.772 59.6774 792.912 59.6774H775.673C774.812 59.6774 774.115 60.3745 774.115 61.2344V137.162C774.115 138.022 774.812 138.719 775.673 138.719H794.82C795.68 138.719 796.378 138.022 796.378 137.162V96.883Z" fill="#303136"/>
<path d="M866.429 122.113C854.979 122.113 848.937 112.691 848.937 99.2782C848.937 85.865 854.979 76.2842 866.429 76.2842C877.879 76.2842 883.922 85.865 883.922 99.2782C883.922 112.691 877.879 122.113 866.429 122.113ZM885.194 137.162C885.194 138.022 885.892 138.719 886.752 138.719H904.627C905.488 138.719 906.185 138.022 906.185 137.162V36.7161C906.185 35.8562 905.488 35.1591 904.627 35.1591H886.116C885.255 35.1591 884.558 35.8562 884.558 36.7161V70.6953C879.628 61.4339 871.359 57.7612 860.863 57.7612C840.349 57.7612 826.355 75.6455 826.355 99.2782C826.355 122.911 840.349 140.636 860.863 140.636C871.995 140.636 880.582 136.164 885.194 124.667V137.162Z" fill="#303136"/>
</g>
<defs>
<clipPath id="clip0_317_39304">
<rect width="907" height="174" fill="white"/>
</clipPath>
</defs>
</svg>
