<svg xmlns="http://www.w3.org/2000/svg" fill="none" viewBox="201.88 207.65 630.12 231.57">
  <path d="M792.387 381.985C786.881 381.985 781.936 380.92 777.554 378.791C773.283 376.662 769.856 373.804 767.271 370.218C764.799 366.52 763.563 362.261 763.563 357.442C763.563 351.167 765.586 346.068 769.631 342.145C773.677 338.223 779.464 335.534 786.993 334.077L806.715 330.042C810.648 329.258 813.346 328.025 814.806 326.344C816.267 324.663 816.998 322.198 816.998 318.948L819.021 338.615L790.702 344.667C786.881 345.451 783.903 346.852 781.768 348.869C779.745 350.887 778.734 353.688 778.734 357.274C778.734 360.973 780.138 363.942 782.948 366.184C785.869 368.425 789.803 369.546 794.747 369.546C798.793 369.546 802.501 368.649 805.872 366.856C809.356 365.063 812.053 362.597 813.964 359.46C815.986 356.21 816.998 352.512 816.998 348.365V318.948C816.998 314.913 815.537 311.776 812.615 309.534C809.806 307.181 805.929 306.004 800.984 306.004C794.691 306.004 789.859 307.573 786.488 310.711C783.116 313.849 781.15 318.275 780.588 323.991L765.754 321.974C766.316 316.034 768.114 310.935 771.148 306.677C774.182 302.306 778.228 298.944 783.285 296.591C788.342 294.237 794.354 293.061 801.321 293.061C811.21 293.061 818.796 295.582 824.077 300.625C829.359 305.668 832 312.168 832 320.124V379.463H817.335V368.537C815.874 372.235 812.896 375.429 808.401 378.119C804.018 380.696 798.68 381.985 792.387 381.985Z" fill="black"/>
  <path d="M644.043 379.463V295.582H658.708V304.996C659.831 301.746 662.304 298.944 666.125 296.591C669.945 294.237 674.384 293.061 679.441 293.061C684.386 293.061 688.937 294.125 693.095 296.254C697.253 298.384 699.95 301.578 701.186 305.836C702.647 301.914 705.344 298.832 709.277 296.591C713.323 294.237 717.818 293.061 722.762 293.061C731.303 293.061 737.821 295.526 742.316 300.457C746.811 305.388 749.058 312.56 749.058 321.974V379.463H734.056V323.991C734.056 318.387 732.82 314.185 730.348 311.383C727.988 308.47 724.504 307.013 719.897 307.013C714.84 307.013 710.907 308.806 708.097 312.392C705.4 315.866 704.052 320.965 704.052 327.689V379.463H689.049V323.991C689.049 318.387 687.813 314.185 685.341 311.383C682.981 308.47 679.497 307.013 674.89 307.013C669.833 307.013 665.9 308.806 663.09 312.392C660.393 315.866 659.045 320.965 659.045 327.689V379.463H644.043Z" fill="black"/>
  <path d="M586.679 409.721C576.228 409.721 567.743 407.312 561.225 402.493C554.707 397.674 550.55 390.95 548.752 382.321L563.417 379.127C564.653 384.618 567.294 388.877 571.339 391.903C575.385 395.041 580.498 396.61 586.679 396.61C594.095 396.61 599.658 394.704 603.366 390.894C607.187 387.196 609.098 381.649 609.098 374.252V360.973C607.412 365.119 604.265 368.481 599.658 371.058C595.163 373.636 590.106 374.925 584.487 374.925C577.07 374.925 570.553 373.244 564.934 369.882C559.315 366.408 554.932 361.589 551.786 355.425C548.639 349.262 547.066 342.145 547.066 334.077C547.066 325.896 548.639 318.724 551.786 312.56C554.932 306.396 559.259 301.634 564.765 298.272C570.384 294.798 576.958 293.061 584.487 293.061C590.106 293.061 595.219 294.349 599.827 296.927C604.546 299.392 607.749 302.474 609.435 306.172V295.582H624.1V374.252C624.1 381.649 622.639 387.98 619.717 393.248C616.795 398.627 612.525 402.717 606.906 405.519C601.4 408.32 594.657 409.721 586.679 409.721ZM586.341 361.645C593.534 361.645 599.265 359.123 603.535 354.08C607.918 349.037 610.109 342.37 610.109 334.077C610.109 325.672 607.918 318.948 603.535 313.905C599.152 308.862 593.421 306.34 586.341 306.34C579.149 306.34 573.362 308.862 568.979 313.905C564.709 318.948 562.574 325.672 562.574 334.077C562.574 342.37 564.765 349.037 569.148 354.08C573.531 359.123 579.262 361.645 586.341 361.645Z" fill="black"/>
  <path d="M516.79 379.365V295.582H531.793V379.463L516.79 379.365ZM516.622 284.824V260.954H531.961V284.824H516.622Z" fill="black"/>
  <path d="M430.627 379.463V260.954H446.472V379.463H430.627ZM433.83 329.37V315.081H498.39V329.37H433.83ZM433.83 275.41V260.954H504.627V275.41H433.83Z" fill="black"/>
  <path fill-rule="evenodd" clip-rule="evenodd" d="M 221.552 287.171 C 209.71 279.454 201.881 266.094 201.881 250.905 C 201.881 227.016 221.246 207.651 245.135 207.651 L 319.243 207.651 C 343.131 207.651 362.497 227.016 362.497 250.905 C 362.497 266.094 354.668 279.454 342.825 287.171 C 354.668 294.888 362.497 308.248 362.497 323.436 C 362.497 347.325 343.131 366.69 319.243 366.69 L 318.454 366.69 C 307.162 366.69 296.88 362.363 289.177 355.276 L 289.177 395.573 C 289.177 419.729 269.388 439.221 245.331 439.221 C 221.491 439.221 201.881 419.905 201.881 395.968 C 201.881 380.779 209.709 367.419 221.552 359.702 C 209.709 351.985 201.881 338.625 201.881 323.436 C 201.881 308.248 209.71 294.888 221.552 287.171 Z M 289.177 323.436 C 289.177 339.606 302.286 352.713 318.454 352.713 L 319.243 352.713 C 335.412 352.713 348.52 339.606 348.52 323.436 C 348.52 307.267 335.412 294.159 319.243 294.159 L 318.454 294.159 C 302.286 294.159 289.177 307.267 289.177 323.436 Z M 275.2 294.159 L 245.135 294.159 C 228.966 294.159 215.858 307.267 215.858 323.436 C 215.858 339.573 228.913 352.661 245.037 352.713 L 245.082 352.713 L 275.2 352.713 L 275.2 294.159 Z M 245.135 366.69 C 245.102 366.69 245.069 366.69 245.037 366.69 C 228.913 366.743 215.858 379.831 215.858 395.968 C 215.858 412.087 229.112 425.245 245.331 425.245 C 261.767 425.245 275.2 411.912 275.2 395.573 L 275.2 366.69 L 245.135 366.69 Z M 275.2 280.182 L 245.135 280.182 C 228.966 280.182 215.858 267.075 215.858 250.905 C 215.858 234.736 228.966 221.628 245.135 221.628 L 275.2 221.628 L 275.2 280.182 Z M 319.243 280.182 L 289.177 280.182 L 289.177 221.628 L 319.243 221.628 C 335.412 221.628 348.52 234.736 348.52 250.905 C 348.52 267.075 335.412 280.182 319.243 280.182 Z" fill="black" style=""/>
</svg>